<svg viewBox="0 0 701 904" fill="none" xmlns="http://www.w3.org/2000/svg">
<g id="Fignu2">
<path id="fignu2-line" d="M354 729V902" stroke="url(#paint0_linear_38_6100)" stroke-width="3" stroke-linecap="round" stroke-dasharray="1 10"/>
<g id="modelo-screen">
<g id="fignu2-phone">
<g id="Rectangle 4.3" filter="url(#filter0_d_38_6100)">
<path d="M515 168.821C515 168.368 515.368 168 515.821 168V168C517.181 168 518.284 169.103 518.284 170.463V238.608C518.284 239.968 517.181 241.071 515.821 241.071V241.071C515.368 241.071 515 240.703 515 240.25V168.821Z" fill="white"/>
</g>
<path id="Rectangle 1005" d="M187 118C187 116.343 188.343 115 190 115H190.105C190.657 115 191.105 115.448 191.105 116V139.452C191.105 140.004 190.657 140.452 190.105 140.452H190C188.343 140.452 187 139.108 187 137.452V118Z" fill="white"/>
<path id="Rectangle 4.1" d="M187 161.463C187 160.103 188.103 159 189.463 159H190.284C190.738 159 191.105 159.368 191.105 159.821V202.514C191.105 202.967 190.738 203.335 190.284 203.335H189.463C188.103 203.335 187 202.232 187 200.872V161.463Z" fill="white"/>
<path id="Rectangle 4.1_2" d="M187 221.463C187 220.103 188.103 219 189.463 219H190.284C190.738 219 191.105 219.368 191.105 219.821V262.514C191.105 262.967 190.738 263.335 190.284 263.335H189.463C188.103 263.335 187 262.232 187 260.872V221.463Z" fill="white"/>
<g id="Rectangle 1006" filter="url(#filter1_dddd_38_6100)">
<rect x="189" y="29" width="328" height="686" rx="48" fill="white"/>
</g>
<rect id="Rectangle 1007" x="334" y="47" width="36" height="4" rx="2" fill="#C4C4C4"/>
<circle id="Ellipse 176" cx="387" cy="49" r="4" fill="#C4C4C4"/>
<path id="Subtract" fill-rule="evenodd" clip-rule="evenodd" d="M267 47C267 46.6643 267.01 46.3309 267.029 46H267C267 42.134 263.866 39 260 39H237C216.013 39 199 56.0132 199 77V668C199 688.987 216.013 706 237 706H469C489.987 706 507 688.987 507 668V77C507 56.0132 489.987 39 469 39H447C443.134 39 440 42.134 440 46H439.971C439.99 46.3309 440 46.6643 440 47C440 56.3888 432.389 64 423 64H284C274.611 64 267 56.3888 267 47Z" fill="url(#paint1_linear_38_6100)"/>
</g>
</g>
<g id="Group 540">
<g id="fignu2-screen1" class="fignu2-screen1">
<path id="Union" fill-rule="evenodd" clip-rule="evenodd" d="M328.29 355.57C328.29 355.58 328.29 355.585 328.291 355.585C328.292 355.586 328.294 355.58 328.297 355.568C328.312 355.516 328.36 355.353 328.509 355.094C328.704 354.756 329.023 354.347 329.492 353.963C330.407 353.212 331.954 352.504 334.415 352.685C344.459 353.422 349.949 360.313 349.949 365.298V396.933C349.949 397.26 349.892 397.381 349.875 397.409C349.842 397.429 349.717 397.486 349.39 397.486H343.283C342.957 397.486 342.831 397.429 342.798 397.409C342.782 397.381 342.724 397.26 342.724 396.933V367.731C342.724 365.655 341.709 363.623 340.254 362.133C338.793 360.638 336.747 359.545 334.512 359.545H328.29V355.57ZM349.883 397.403C349.882 397.404 349.88 397.405 349.879 397.407C349.883 397.404 349.885 397.402 349.885 397.402C349.884 397.402 349.884 397.402 349.883 397.403ZM342.789 397.402C342.789 397.402 342.791 397.403 342.795 397.407C342.791 397.404 342.789 397.402 342.789 397.402ZM334.512 362.202H328.29V396.933C328.29 397.766 328.14 398.703 327.433 399.375C326.741 400.034 325.821 400.142 325.074 400.142H318.856C318.162 400.142 317.307 400.01 316.623 399.414C315.903 398.786 315.641 397.884 315.641 396.933V367.4C315.641 365.753 316.563 363.822 317.858 362.347C319.17 360.853 321.114 359.545 323.408 359.545H325.633V355.564C325.633 354.98 325.883 354.328 326.209 353.765C326.56 353.157 327.085 352.501 327.807 351.908C329.276 350.704 331.504 349.808 334.609 350.036C345.661 350.847 352.606 358.569 352.606 365.298V396.933C352.606 397.717 352.429 398.586 351.792 399.25C351.144 399.925 350.259 400.142 349.39 400.142H343.283C342.414 400.142 341.53 399.925 340.882 399.25C340.244 398.586 340.068 397.717 340.068 396.933V367.731C340.068 366.498 339.44 365.101 338.353 363.99C337.272 362.883 335.876 362.202 334.512 362.202ZM323.408 362.202H325.633V396.933C325.633 397.201 325.608 397.357 325.585 397.44C325.498 397.463 325.34 397.486 325.074 397.486H318.856C318.519 397.486 318.397 397.427 318.372 397.413C318.349 397.374 318.297 397.247 318.297 396.933V367.4C318.297 366.613 318.818 365.281 319.854 364.1C320.873 362.94 322.149 362.202 323.408 362.202ZM318.383 397.427C318.382 397.427 318.379 397.424 318.374 397.416C318.38 397.422 318.383 397.426 318.383 397.427ZM382.13 404.013C382.13 404.003 382.13 403.998 382.129 403.998C382.128 403.997 382.126 404.003 382.123 404.015C382.108 404.067 382.06 404.23 381.911 404.489C381.716 404.827 381.397 405.236 380.928 405.62C380.013 406.371 378.466 407.079 376.005 406.898C365.961 406.161 360.471 399.27 360.471 394.285V362.65C360.471 362.323 360.528 362.202 360.545 362.174C360.578 362.154 360.703 362.097 361.03 362.097H367.137C367.463 362.097 367.589 362.154 367.622 362.174C367.638 362.202 367.696 362.323 367.696 362.65V391.852C367.696 393.928 368.711 395.96 370.166 397.45C371.627 398.945 373.673 400.038 375.908 400.038H382.13V404.013ZM360.541 362.177C360.538 362.18 360.536 362.181 360.535 362.181C360.535 362.181 360.537 362.179 360.541 362.177ZM367.63 362.18C367.63 362.181 367.631 362.181 367.631 362.181C367.631 362.181 367.63 362.18 367.629 362.179C367.628 362.179 367.627 362.178 367.625 362.177C367.627 362.178 367.629 362.18 367.63 362.18ZM375.908 397.382H382.13V362.65C382.13 361.817 382.279 360.88 382.987 360.208C383.679 359.549 384.599 359.441 385.346 359.441H391.563C392.258 359.441 393.113 359.573 393.796 360.169C394.516 360.797 394.779 361.699 394.779 362.65V392.183C394.779 393.83 393.857 395.761 392.562 397.236C391.249 398.73 389.306 400.038 387.012 400.038H384.786V404.019C384.786 404.603 384.536 405.255 384.211 405.818C383.86 406.426 383.335 407.082 382.612 407.675C381.144 408.879 378.916 409.775 375.811 409.547C364.759 408.736 357.814 401.014 357.814 394.285V362.65C357.814 361.866 357.99 360.997 358.628 360.333C359.276 359.658 360.161 359.441 361.03 359.441H367.137C368.006 359.441 368.89 359.658 369.538 360.333C370.176 360.997 370.352 361.866 370.352 362.65V391.852C370.352 393.085 370.98 394.482 372.066 395.593C373.148 396.7 374.544 397.382 375.908 397.382ZM387.012 397.382H384.786V362.65C384.786 362.382 384.812 362.226 384.834 362.143C384.922 362.12 385.079 362.097 385.346 362.097H391.563C391.901 362.097 392.023 362.156 392.048 362.17C392.071 362.209 392.123 362.336 392.123 362.65V392.183C392.123 392.97 391.602 394.302 390.566 395.483C389.547 396.643 388.271 397.382 387.012 397.382ZM392.039 362.158C392.038 362.157 392.037 362.156 392.037 362.156C392.037 362.157 392.039 362.161 392.046 362.167C392.043 362.162 392.04 362.159 392.039 362.158Z" fill="#EDEAEF"/>
<rect id="Rectangle 426" x="305" y="695.381" width="98.661" height="4.93305" rx="2.46653" fill="#EDEAEF"/>
</g>
</g>
<g id="Fingu-screen1">
<g id="Group 534">
<g id="Group 533">
<g id="fignu2-screen2"  class="fignu2-screen2">
<text id="Me ajuda" fill="#FBF9FC" xml:space="preserve" style="white-space: pre" font-family="Source Sans Pro" font-size="8.87422" letter-spacing="0em"><tspan x="262.329" y="355.804">Me ajuda</tspan></text>
<text id="Ativar a fun&#195;&#167;&#195;&#163;o d&#195;&#169;bito" fill="#FBF9FC" xml:space="preserve" style="white-space: pre" font-family="Source Sans Pro" font-size="8.87422" letter-spacing="0em"><tspan x="262.329" y="395.364">Ativar a fun&#xe7;&#xe3;o d&#xe9;bito</tspan></text>
<text id="Perfil" fill="#FBF9FC" xml:space="preserve" style="white-space: pre" font-family="Source Sans Pro" font-size="8.87422" letter-spacing="0em"><tspan x="262.329" y="434.925">Perfil</tspan></text>
<text id="Configurar NuConta" fill="#FBF9FC" xml:space="preserve" style="white-space: pre" font-family="Source Sans Pro" font-size="8.87422" letter-spacing="0em"><tspan x="262.329" y="474.485">Configurar NuConta</tspan></text>
<text id="Configurar cart&#195;&#163;o" fill="#FBF9FC" xml:space="preserve" style="white-space: pre" font-family="Source Sans Pro" font-size="8.87422" letter-spacing="0em"><tspan x="262.329" y="514.046">Configurar cart&#xe3;o</tspan></text>
<text id="sair do app" fill="#FBF9FC" xml:space="preserve" style="white-space: pre" font-family="Source Sans Pro" font-size="8.87422" font-weight="bold" letter-spacing="0em"><tspan x="326.421" y="607.013">SAIR DO APP</tspan></text>
<g id="Group 322">
<text id="Banco" fill="#FBF9FC" xml:space="preserve" style="white-space: pre" font-family="Source Sans Pro" font-size="11.8323" letter-spacing="0em"><tspan x="262.581" y="281.223">Banco</tspan></text>
<text id="260 - Nu Pagamentos S.A." fill="#FBF9FC" xml:space="preserve" style="white-space: pre" font-family="Source Sans Pro" font-size="11.8323" font-weight="bold" letter-spacing="0em"><tspan x="298.571" y="281.223">260 - Nu Pagamentos S.A.</tspan></text>
</g>
<g id="Group 323">
<text id="0001" fill="#FBF9FC" xml:space="preserve" style="white-space: pre" font-family="Source Sans Pro" font-size="11.8323" font-weight="bold" letter-spacing="0em"><tspan x="355.058" y="298.036">0001</tspan></text>
<text id="Ag&#195;&#170;ncia" fill="#FBF9FC" xml:space="preserve" style="white-space: pre" font-family="Source Sans Pro" font-size="11.8323" letter-spacing="0em"><tspan x="312.658" y="298.036">Ag&#xea;ncia</tspan></text>
</g>
<g id="Group 324">
<text id="77712444-0" fill="#FBF9FC" xml:space="preserve" style="white-space: pre" font-family="Source Sans Pro" font-size="11.8323" font-weight="bold" letter-spacing="0em"><tspan x="331.645" y="314.85">77712444-0</tspan></text>
<text id="Conta" fill="#FBF9FC" xml:space="preserve" style="white-space: pre" font-family="Source Sans Pro" font-size="11.8323" letter-spacing="0em"><tspan x="298.12" y="314.85">Conta</tspan></text>
</g>
<path id="Vector" d="M478.515 359.578L484.416 353.642L478.515 347.707" stroke="#FBF9FC" stroke-width="0.986024" stroke-linecap="round" stroke-linejoin="round"/>
<path id="Vector_2" d="M478.515 518.844L484.416 512.909L478.515 506.974" stroke="#FBF9FC" stroke-width="0.986024" stroke-linecap="round" stroke-linejoin="round"/>
<path id="Vector_3" d="M478.515 479.275L484.416 473.34L478.515 467.404" stroke="#FBF9FC" stroke-width="0.986024" stroke-linecap="round" stroke-linejoin="round"/>
<path id="Vector_4" d="M478.515 438.717L484.416 432.781L478.515 426.846" stroke="#FBF9FC" stroke-width="0.986024" stroke-linecap="round" stroke-linejoin="round"/>
<path id="Vector_5" d="M478.515 399.147L484.416 393.212L478.515 387.276" stroke="#FBF9FC" stroke-width="0.986024" stroke-linecap="round" stroke-linejoin="round"/>
<g id="Group 325">
<path id="Vector_6" d="M244.465 440.695V438.716C244.465 437.667 244.05 436.661 243.313 435.918C242.575 435.176 241.575 434.76 240.531 434.76H232.664C231.621 434.76 230.62 435.176 229.883 435.918C229.145 436.661 228.73 437.667 228.73 438.716V440.695" stroke="#FBF9FC" stroke-width="0.986024" stroke-linecap="round" stroke-linejoin="round"/>
<path id="Vector_7" d="M236.598 430.803C238.77 430.803 240.531 429.031 240.531 426.846C240.531 424.66 238.77 422.889 236.598 422.889C234.425 422.889 232.664 424.66 232.664 426.846C232.664 429.031 234.425 430.803 236.598 430.803Z" stroke="#FBF9FC" stroke-width="0.986024" stroke-linecap="round" stroke-linejoin="round"/>
</g>
<g id="Group 326">
<path id="Vector_8" d="M236.599 460.48V482.243" stroke="#FBF9FC" stroke-width="0.986024" stroke-linecap="round" stroke-linejoin="round"/>
<path id="Vector_9" d="M241.516 464.437H234.14C233.227 464.437 232.352 464.801 231.706 465.451C231.061 466.1 230.698 466.981 230.698 467.899C230.698 468.817 231.061 469.698 231.706 470.347C232.352 470.997 233.227 471.361 234.14 471.361H239.057C239.97 471.361 240.845 471.726 241.491 472.375C242.136 473.025 242.499 473.905 242.499 474.824C242.499 475.742 242.136 476.623 241.491 477.272C240.845 477.921 239.97 478.286 239.057 478.286H230.698" stroke="#FBF9FC" stroke-width="0.986024" stroke-linecap="round" stroke-linejoin="round"/>
</g>
<g id="Group 327">
<path id="Vector_10" d="M245.448 504.006H227.747C226.661 504.006 225.78 504.892 225.78 505.984V517.855C225.78 518.948 226.661 519.834 227.747 519.834H245.448C246.535 519.834 247.415 518.948 247.415 517.855V505.984C247.415 504.892 246.535 504.006 245.448 504.006Z" stroke="#FBF9FC" stroke-width="0.986024" stroke-linecap="round" stroke-linejoin="round"/>
<path id="Vector_11" d="M225.78 509.941H247.415" stroke="#FBF9FC" stroke-width="0.986024" stroke-linecap="round" stroke-linejoin="round"/>
</g>
<g id="Group 328">
<path id="Vector_12" d="M245.448 385.298H227.747C226.661 385.298 225.78 386.184 225.78 387.276V399.147C225.78 400.24 226.661 401.126 227.747 401.126H245.448C246.535 401.126 247.415 400.24 247.415 399.147V387.276C247.415 386.184 246.535 385.298 245.448 385.298Z" stroke="#FBF9FC" stroke-width="0.986024" stroke-linecap="round" stroke-linejoin="round"/>
<path id="Vector_13" d="M225.78 391.233H247.415" stroke="#FBF9FC" stroke-width="0.986024" stroke-linecap="round" stroke-linejoin="round"/>
</g>
<g id="Group 329">
<path id="Vector_14" d="M236.598 361.556C242.029 361.556 246.432 357.127 246.432 351.664C246.432 346.201 242.029 341.772 236.598 341.772C231.167 341.772 226.764 346.201 226.764 351.664C226.764 357.127 231.167 361.556 236.598 361.556Z" stroke="#FBF9FC" stroke-width="0.986024" stroke-linecap="round" stroke-linejoin="round"/>
<path id="Vector_15" d="M233.736 348.696C233.968 348.035 234.424 347.478 235.025 347.122C235.625 346.767 236.331 346.638 237.018 346.756C237.705 346.875 238.328 347.234 238.776 347.77C239.225 348.306 239.471 348.985 239.47 349.685C239.47 351.664 236.519 352.653 236.519 352.653" stroke="#FBF9FC" stroke-width="0.986024" stroke-linecap="round" stroke-linejoin="round"/>
<path id="Vector_16" d="M236.598 356.61H236.608" stroke="#FBF9FC" stroke-width="0.986024" stroke-linecap="round" stroke-linejoin="round"/>
</g>
<path id="Vector 34" d="M215.986 333.792H486.157" stroke="#BB71D2" stroke-width="0.807701"/>
<path id="Vector 35" d="M215.986 531.594H487.143" stroke="#BB71D2" stroke-width="0.807701"/>
<text id="Configurar App" fill="#FBF9FC" xml:space="preserve" style="white-space: pre" font-family="Source Sans Pro" font-size="8.87422" letter-spacing="0em"><tspan x="262.329" y="553.606">Configurar App</tspan></text>
<path id="Vector_17" d="M478.515 558.414L484.416 552.478L478.515 546.543" stroke="#FBF9FC" stroke-width="0.986024" stroke-linecap="round" stroke-linejoin="round"/>
<path id="Vector 36" d="M215.986 571.155H487.143" stroke="#BB71D2" stroke-width="0.807701"/>
<path id="Vector 37" d="M215.986 492.034H487.143" stroke="#BB71D2" stroke-width="0.807701"/>
<path id="Vector 38" d="M215.986 452.473H487.143" stroke="#BB71D2" stroke-width="0.807701"/>
<path id="Vector 39" d="M215.986 412.913H487.143" stroke="#BB71D2" stroke-width="0.807701"/>
<path id="Vector 40" d="M215 373.352H486.157" stroke="#BB71D2" stroke-width="0.807701"/>
<rect id="Rectangle 351" x="215.404" y="585.405" width="270.349" height="38.7528" rx="2.55422" stroke="#BB71D2" stroke-width="0.807701"/>
<path id="Vector_18" d="M358.697 141.946L352.797 136.011L346.896 141.946" stroke="#FBF9FC" stroke-width="0.986024" stroke-linecap="round" stroke-linejoin="round"/>
<g id="Group 330">
<rect id="Rectangle 396" x="307.004" y="162.693" width="91.7003" height="91.9782" fill="white"/>
<path id="Union_2" fill-rule="evenodd" clip-rule="evenodd" d="M363.963 169.273H391.995V175.106H363.963V169.273ZM353.078 180.49V175.106H358.446V169.273H347.263V174.657V175.106V180.49V180.49V186.323H352.631V192.006H346.964V203.223H352.779V197.539H358.446V186.323H358.446V180.49H353.078ZM380.961 180.639H375.146V186.472H380.961V180.639ZM319.38 202.924V208.756L324.748 208.756V203.223H335.931V208.607H352.78V202.924H358.595V208.756H352.78V214.44H352.779V219.973H346.964V214.44H330.414V209.056H325.195V214.589H319.38V208.756L313.565 208.756V202.924H319.38ZM375.146 209.056H375.146V214.589H369.331V209.056H363.963V203.223H375.146V209.056ZM380.961 230.891V225.806H386.329V230.891H380.961ZM375.146 236.724L380.514 236.724H386.329V242.407H380.514V248.24H386.329V242.556H392.144V236.724H386.329V231.19H392.144V225.357H386.329V219.973V219.973V214.44H392.144V203.223H386.329V208.756H380.514V219.973H363.963V225.806H375.146V236.724L369.778 236.724V231.04H363.963V236.873H369.331V242.257H352.78V248.09H375.146V247.94V242.257V236.724ZM358.595 225.357H363.963V231.19L358.595 231.19V237.023H352.78V231.19L358.147 231.19V225.806H352.78V219.973H358.147V214.14H363.963V219.973H358.595V225.357ZM352.779 236.574V242.257H346.964V236.574V236.425V225.357H352.779V236.425V236.574ZM324.748 231.04H330.563V236.873H324.748V231.04ZM330.563 180.639H324.748V186.472H330.563V180.639ZM335.782 192.006H313.565V197.839H341.597V192.006H341.597V175.106H341.597V169.273H313.565V175.106H313.565V192.006H319.38V175.106H335.782V192.006ZM313.565 219.973H341.597V225.806L341.597 242.108H335.782V225.806H319.38V242.108H313.565V225.806V219.973ZM341.597 242.108H313.565V247.941H341.597V242.108ZM391.995 192.006H363.963V197.839H391.995V192.006ZM391.994 192.006V175.106H386.179V192.006H391.994ZM363.963 175.106H369.778V192.006H363.963V175.106Z" fill="#82269E"/>
</g>
<rect id="Rectangle 352" x="221" y="640.8" width="260" height="66.2" rx="4.93012" fill="#FBF9FC"/>
<text id="NuConta" fill="#3C3B3D" xml:space="preserve" style="white-space: pre" font-family="Source Sans Pro" font-size="11.8323" letter-spacing="0em"><tspan x="273.889" y="668.148">NuConta</tspan></text>
<g id="Group 331">
<path id="Vector_19" d="M440.162 667.23C440.162 667.23 444.096 659.316 450.98 659.316C457.863 659.316 461.797 667.23 461.797 667.23C461.797 667.23 457.863 675.143 450.98 675.143C444.096 675.143 440.162 667.23 440.162 667.23Z" stroke="#3C3B3D" stroke-width="0.986024" stroke-linecap="round" stroke-linejoin="round"/>
<path id="Vector_20" d="M450.98 670.197C452.609 670.197 453.93 668.869 453.93 667.23C453.93 665.591 452.609 664.262 450.98 664.262C449.35 664.262 448.029 665.591 448.029 667.23C448.029 668.869 449.35 670.197 450.98 670.197Z" stroke="#3C3B3D" stroke-width="0.986024" stroke-linecap="round" stroke-linejoin="round"/>
</g>
<path id="Vector_21" d="M243.481 674.154C248.913 674.154 253.316 669.725 253.316 664.262C253.316 658.798 248.913 654.369 243.481 654.369C238.05 654.369 233.647 658.798 233.647 664.262C233.647 669.725 238.05 674.154 243.481 674.154Z" stroke="#3C3B3D" stroke-width="0.986024" stroke-linecap="round" stroke-linejoin="round"/>
<g id="Group 332">
<path id="Vector_22" d="M243.482 658.326V669.208" stroke="#3C3B3D" stroke-width="0.986024" stroke-linecap="round" stroke-linejoin="round"/>
<path id="Vector_23" d="M245.94 660.305H242.253C241.796 660.305 241.359 660.487 241.036 660.812C240.713 661.136 240.532 661.577 240.532 662.036C240.532 662.495 240.713 662.935 241.036 663.26C241.359 663.585 241.796 663.767 242.253 663.767H244.711C245.168 663.767 245.605 663.949 245.928 664.274C246.251 664.599 246.432 665.039 246.432 665.498C246.432 665.957 246.251 666.398 245.928 666.722C245.605 667.047 245.168 667.229 244.711 667.229H240.532" stroke="#3C3B3D" stroke-width="0.986024" stroke-linecap="round" stroke-linejoin="round"/>
</g>
<g id="Group 333">
<path id="Vector_24" d="M241.515 541.597H231.681C230.594 541.597 229.714 542.483 229.714 543.575V559.403C229.714 560.496 230.594 561.382 231.681 561.382H241.515C242.601 561.382 243.481 560.496 243.481 559.403V543.575C243.481 542.483 242.601 541.597 241.515 541.597Z" stroke="#FBF9FC" stroke-width="0.986024" stroke-linecap="round" stroke-linejoin="round"/>
<path id="Vector_25" d="M236.598 557.425H236.608" stroke="#FBF9FC" stroke-width="0.986024" stroke-linecap="round" stroke-linejoin="round"/>
</g>
<g id="Group 334">
<g id="Group 32">
<rect id="Rectangle 421" x="444.744" y="55.1028" width="2.57108" height="3.31569" rx="0.986024" fill="white"/>
<rect id="Rectangle 422" x="448.417" y="53.6292" width="2.57108" height="4.78933" rx="0.986024" fill="white"/>
<rect id="Rectangle 423" x="452.09" y="51.7872" width="2.57108" height="6.63138" rx="0.986024" fill="white"/>
<rect id="Rectangle 424" x="455.763" y="49.9451" width="2.57108" height="8.47343" rx="0.986024" fill="white"/>
</g>
<g id="Group 34">
<path id="Vector 36_2" d="M494.045 56.3143V53.4659C494.834 53.9407 494.992 54.4154 494.992 54.8901C494.992 55.3648 494.834 55.8396 494.045 56.3143Z" fill="white" fill-opacity="0.5"/>
<rect id="Rectangle 413" x="478.584" y="51.2496" width="14.5143" height="7.28104" rx="1.57764" stroke="white" stroke-opacity="0.5" stroke-width="0.631056"/>
<rect id="Rectangle 414" x="479.531" y="52.2" width="12.6211" height="5.38023" rx="0.946583" fill="#FBF9FC"/>
</g>
<g id="Group 33">
<path id="Subtract_2" fill-rule="evenodd" clip-rule="evenodd" d="M473.59 52.4524L472.407 53.6395C471.263 52.5744 469.731 51.9231 468.047 51.9231C466.357 51.9231 464.819 52.5795 463.674 53.652L462.492 52.4664C463.847 50.9206 465.834 49.9451 468.047 49.9451C470.254 49.9451 472.235 50.9147 473.59 52.4524Z" fill="white"/>
<path id="Subtract_3" fill-rule="evenodd" clip-rule="evenodd" d="M472.716 56.5591C472.716 56.5589 472.716 56.5587 472.716 56.5585L472.716 56.559L472.716 56.5591ZM465.7 55.9573L464.656 54.8156C465.597 53.8864 466.906 53.3367 468.329 53.3985C469.628 53.455 470.787 54.0105 471.631 54.8725L470.477 55.9345C469.88 55.4125 469.11 55.0824 468.258 55.0454C467.281 55.0029 466.377 55.3535 465.7 55.9573Z" fill="white"/>
<path id="Vector 37_2" d="M468.047 58.3517L466.568 56.8681C467.04 56.4192 467.39 56.2088 468.047 56.2088C468.705 56.2088 469.051 56.3773 469.526 56.8681L468.047 58.3517Z" fill="white"/>
</g>
<text id="22:31" fill="white" xml:space="preserve" style="white-space: pre" font-family="Cairo" font-size="12.8183" font-weight="bold" letter-spacing="0em"><tspan x="223.874" y="58.6915">22:31</tspan></text>
</g>
<g id="Group 335">
<text id="Luiz G S Brito" fill="#FBF9FC" xml:space="preserve" style="white-space: pre" font-family="Sora" font-size="14.5386" font-weight="bold" letter-spacing="0em"><tspan x="308.62" y="113.003">Luiz G S Brito</tspan></text>
<path id="Union_3" fill-rule="evenodd" clip-rule="evenodd" d="M271.442 98.8565V97.3531C271.442 97.3521 271.443 97.3505 271.443 97.3484C271.449 97.3314 271.466 97.2794 271.514 97.1951C271.588 97.0673 271.711 96.9082 271.895 96.7571C272.249 96.4654 272.863 96.1771 273.863 96.2507C278.038 96.5582 280.273 99.4236 280.273 101.436V114.811C280.273 114.846 280.271 114.872 280.269 114.893C280.248 114.895 280.221 114.897 280.186 114.897H277.612C277.577 114.897 277.55 114.895 277.53 114.893C277.528 114.872 277.526 114.846 277.526 114.811V102.465C277.526 101.541 277.077 100.647 276.443 99.9958C275.806 99.3421 274.907 98.8565 273.915 98.8565H271.442ZM273.915 100.275H271.442V114.811C271.442 115.175 271.378 115.623 271.035 115.95C270.7 116.269 270.261 116.315 269.937 116.315H267.316C267.007 116.315 266.604 116.257 266.276 115.97C265.93 115.667 265.812 115.238 265.812 114.811V102.325C265.812 101.582 266.222 100.732 266.783 100.092C267.352 99.4419 268.209 98.8565 269.235 98.8565H270.024V97.3208C270.024 97.0372 270.143 96.7354 270.286 96.4874C270.442 96.2155 270.675 95.9242 270.994 95.662C271.644 95.1272 272.622 94.7374 273.967 94.8365C278.684 95.1838 281.691 98.4962 281.691 101.436V114.811C281.691 115.162 281.613 115.573 281.307 115.892C280.996 116.217 280.576 116.315 280.186 116.315H277.612C277.223 116.315 276.803 116.217 276.492 115.892C276.186 115.573 276.108 115.162 276.108 114.811V102.465C276.108 101.99 275.864 101.434 275.427 100.985C274.992 100.539 274.44 100.275 273.915 100.275ZM269.235 100.275H270.024V114.811C270.024 114.844 270.023 114.872 270.021 114.895C269.997 114.896 269.969 114.897 269.937 114.897H267.316C267.282 114.897 267.255 114.895 267.234 114.893C267.231 114.873 267.23 114.846 267.23 114.811V102.325C267.23 102.039 267.427 101.509 267.85 101.026C268.263 100.554 268.763 100.275 269.235 100.275ZM293.837 116.271V117.775C293.837 117.776 293.836 117.777 293.836 117.779C293.83 117.796 293.813 117.848 293.765 117.933C293.691 118.06 293.568 118.219 293.384 118.37C293.03 118.662 292.416 118.951 291.416 118.877C287.241 118.569 285.006 115.704 285.006 113.691V100.316C285.006 100.282 285.008 100.255 285.01 100.235C285.031 100.232 285.058 100.23 285.093 100.23H287.667C287.701 100.23 287.729 100.232 287.749 100.235C287.751 100.255 287.753 100.282 287.753 100.316V112.663C287.753 113.587 288.202 114.481 288.836 115.132C289.473 115.786 290.372 116.271 291.364 116.271H293.837ZM291.364 114.853H293.837L293.837 100.316C293.837 99.9522 293.901 99.5048 294.244 99.1778C294.579 98.8582 295.018 98.8123 295.342 98.8123H297.963C298.272 98.8123 298.675 98.8708 299.003 99.1571C299.349 99.4602 299.467 99.8892 299.467 100.316V112.803C299.467 113.546 299.057 114.395 298.496 115.035C297.927 115.686 297.07 116.271 296.044 116.271H295.255V117.807C295.255 118.09 295.136 118.392 294.993 118.64C294.837 118.912 294.604 119.203 294.285 119.466C293.635 120 292.657 120.39 291.312 120.291C286.595 119.944 283.588 116.631 283.588 113.691V100.316C283.588 99.966 283.666 99.555 283.972 99.2357C284.283 98.9104 284.703 98.8123 285.093 98.8123H287.667C288.056 98.8123 288.476 98.9104 288.787 99.2357C289.093 99.555 289.171 99.966 289.171 100.316V112.663C289.171 113.138 289.415 113.693 289.852 114.142C290.287 114.589 290.839 114.853 291.364 114.853ZM296.044 114.853H295.255V100.316C295.255 100.284 295.256 100.256 295.258 100.233C295.282 100.231 295.31 100.23 295.342 100.23H297.963C297.997 100.23 298.024 100.232 298.045 100.234C298.048 100.255 298.049 100.282 298.049 100.316V112.803C298.049 113.088 297.852 113.619 297.429 114.101C297.016 114.573 296.516 114.853 296.044 114.853Z" fill="white"/>
</g>
</g>
</g>
</g>
</g>
<g id="Fingu-screen2">
<g id="fignu2-screen3"  class="fignu2-screen3">
<path id="Vector_26" d="M347.543 135.735L353.444 141.652L359.344 135.735" stroke="#FBF9FC" stroke-width="0.986245" stroke-linecap="round" stroke-linejoin="round"/>
<rect id="Rectangle 426_2" x="222.711" y="227.455" width="260.369" height="260.369" rx="4.93123" fill="#FEFBFF"/>
<rect id="Rectangle 427" x="222.711" y="428.649" width="260.369" height="59.1747" rx="4.93123" fill="#EDEAEF"/>
<text id="Saldo dispon&#195;&#173;vel" fill="#3C3B3D" xml:space="preserve" style="white-space: pre" font-family="Source Sans Pro" font-size="11.8349" letter-spacing="0em"><tspan x="235.923" y="331.254">Saldo dispon&#xed;vel</tspan></text>
<text id="Transfer&#195;&#170;ncia de R$ 500,00 feita para Juliana ontem" fill="#3C3B3D" xml:space="preserve" style="white-space: pre" font-family="Source Sans Pro" font-size="8.87621" letter-spacing="0em"><tspan x="278.731" y="456.127">Transfer&#xea;ncia de R$ 500,00 feita para Juliana&#10;</tspan><tspan x="278.731" y="468.127">ontem</tspan></text>
<text id="NuConta_2" fill="#3C3B3D" xml:space="preserve" style="white-space: pre" font-family="Source Sans Pro" font-size="11.8349" letter-spacing="0em"><tspan x="276.309" y="255.33">NuConta</tspan></text>
<text id="R$ 2.150,59" fill="#3C3B3D" xml:space="preserve" style="white-space: pre" font-family="Sora" font-size="23.6699" font-weight="bold" letter-spacing="0em"><tspan x="235.923" y="363.287">R$ 2.150,59</tspan></text>
<g id="Group 333_2">
<path id="Vector_27" d="M441.95 254.084C441.95 254.084 445.883 246.194 452.767 246.194C459.651 246.194 463.585 254.084 463.585 254.084C463.585 254.084 459.651 261.974 452.767 261.974C445.883 261.974 441.95 254.084 441.95 254.084Z" stroke="#3C3B3D" stroke-width="0.986245" stroke-linecap="round" stroke-linejoin="round"/>
<path id="Vector_28" d="M452.767 257.043C454.396 257.043 455.717 255.718 455.717 254.084C455.717 252.45 454.396 251.125 452.767 251.125C451.138 251.125 449.817 252.45 449.817 254.084C449.817 255.718 451.138 257.043 452.767 257.043Z" stroke="#3C3B3D" stroke-width="0.986245" stroke-linecap="round" stroke-linejoin="round"/>
</g>
<g id="Group 334_2">
<g id="Group 13">
<path id="Vector_29" d="M245.27 245.208V256.056" stroke="#3C3B3D" stroke-width="0.986245" stroke-linecap="round" stroke-linejoin="round"/>
<path id="Vector_30" d="M247.729 247.18H244.041C243.584 247.18 243.147 247.362 242.824 247.686C242.501 248.009 242.32 248.448 242.32 248.906C242.32 249.364 242.501 249.803 242.824 250.127C243.147 250.45 243.584 250.632 244.041 250.632H246.499C246.956 250.632 247.393 250.814 247.716 251.138C248.039 251.461 248.22 251.9 248.22 252.358C248.22 252.816 248.039 253.255 247.716 253.578C247.393 253.902 246.956 254.084 246.499 254.084H242.32" stroke="#3C3B3D" stroke-width="0.986245" stroke-linecap="round" stroke-linejoin="round"/>
</g>
<path id="Vector_31" d="M245.27 260.988C250.701 260.988 255.104 256.572 255.104 251.125C255.104 245.678 250.701 241.263 245.27 241.263C239.838 241.263 235.436 245.678 235.436 251.125C235.436 256.572 239.838 260.988 245.27 260.988Z" stroke="#3C3B3D" stroke-width="0.986245" stroke-linecap="round" stroke-linejoin="round"/>
</g>
<g id="Group 335_2">
<g id="Group 14">
<path id="Vector_32" d="M252.153 454.292V465.14" stroke="#3C3B3D" stroke-width="0.986245" stroke-linecap="round" stroke-linejoin="round"/>
<path id="Vector_33" d="M254.612 456.264H250.924C250.468 456.264 250.03 456.446 249.707 456.77C249.384 457.093 249.203 457.532 249.203 457.99C249.203 458.448 249.384 458.887 249.707 459.211C250.03 459.534 250.468 459.716 250.924 459.716H253.383C253.839 459.716 254.277 459.898 254.599 460.222C254.922 460.545 255.104 460.984 255.104 461.442C255.104 461.9 254.922 462.339 254.599 462.662C254.277 462.986 253.839 463.168 253.383 463.168H249.203" stroke="#3C3B3D" stroke-width="0.986245" stroke-linecap="round" stroke-linejoin="round"/>
</g>
<path id="Vector_34" d="M252.153 450.347C246.722 450.347 242.319 454.762 242.319 460.209C242.319 465.656 246.722 470.072 252.153 470.072C257.585 470.072 261.987 465.656 261.987 460.209C261.987 458.995 261.769 457.832 261.368 456.757" stroke="#3C3B3D" stroke-width="0.986245" stroke-linecap="round" stroke-linejoin="round"/>
<g id="Group 15">
<path id="Vector_35" d="M262.971 451.333L259.037 447.388L255.104 451.333" stroke="#3C3B3D" stroke-width="0.986245" stroke-linecap="round" stroke-linejoin="round"/>
<path id="Vector_36" d="M259.037 455.278V447.388" stroke="#3C3B3D" stroke-width="0.986245" stroke-linecap="round" stroke-linejoin="round"/>
</g>
</g>
<path id="Vector_37" d="M460.635 465.141L466.535 459.223L460.635 453.306" stroke="#3C3B3D" stroke-width="0.986245" stroke-linecap="round" stroke-linejoin="round"/>
<circle id="Ellipse 16" cx="338.101" cy="504.59" r="2.95874" fill="#FEFBFF"/>
<circle id="Ellipse 17" cx="353.882" cy="504.59" r="2.95874" fill="#BB71D2"/>
<circle id="Ellipse 18" cx="369.661" cy="504.59" r="2.95874" fill="#BB71D2"/>
<rect id="Rectangle 428" x="303.77" y="683.101" width="98.6245" height="4.93123" rx="2.46561" fill="#EDEAEF"/>
<g id="Group 336">
<g id="Group 32_2">
<rect id="Rectangle 421_2" x="443.63" y="55.0745" width="2.57166" height="3.30641" rx="0.986245" fill="white"/>
<rect id="Rectangle 422_2" x="447.304" y="53.605" width="2.57166" height="4.77593" rx="0.986245" fill="white"/>
<rect id="Rectangle 423_2" x="450.978" y="51.7681" width="2.57166" height="6.61283" rx="0.986245" fill="white"/>
<rect id="Rectangle 424_2" x="454.651" y="49.9312" width="2.57166" height="8.44972" rx="0.986245" fill="white"/>
</g>
<g id="Group 34_2">
<path id="Vector 36_3" d="M492.942 56.2826V53.4422C493.731 53.9156 493.889 54.389 493.889 54.8624C493.889 55.3358 493.731 55.8092 492.942 56.2826Z" fill="white" fill-opacity="0.5"/>
<rect id="Rectangle 413_2" x="477.478" y="51.233" width="14.5175" height="7.25877" rx="1.57799" stroke="white" stroke-opacity="0.5" stroke-width="0.631197"/>
<rect id="Rectangle 414_2" x="478.425" y="52.1799" width="12.6239" height="5.36517" rx="0.946796" fill="#FBF9FC"/>
</g>
<g id="Group 33_2">
<path id="Subtract_4" fill-rule="evenodd" clip-rule="evenodd" d="M471.299 53.6152L472.483 52.4313C471.128 50.898 469.146 49.9312 466.939 49.9312C464.725 49.9312 462.738 50.904 461.382 52.4455L462.565 53.6277C463.71 52.5582 465.248 51.9036 466.939 51.9036C468.623 51.9036 470.155 52.5531 471.299 53.6152Z" fill="white"/>
<path id="Subtract_5" fill-rule="evenodd" clip-rule="evenodd" d="M471.61 56.5267C471.61 56.5264 471.609 56.5262 471.609 56.5259L471.609 56.5267L471.61 56.5267ZM464.591 55.9268L463.547 54.7883C464.488 53.8616 465.797 53.3133 467.221 53.375C468.52 53.4313 469.68 53.9851 470.524 54.8447L469.369 55.9038C468.773 55.3833 468.002 55.0541 467.15 55.0172C466.172 54.9748 465.269 55.3245 464.591 55.9268Z" fill="white"/>
<path id="Vector 37_3" d="M466.939 58.3142L465.459 56.8349C465.931 56.3871 466.281 56.1774 466.939 56.1774C467.596 56.1774 467.943 56.3454 468.418 56.8349L466.939 58.3142Z" fill="white"/>
</g>
<text id="22:31_2" fill="white" xml:space="preserve" style="white-space: pre" font-family="Cairo" font-size="12.8212" font-weight="bold" letter-spacing="0em"><tspan x="222.711" y="58.6926">22:31</tspan></text>
</g>
<g id="Group 337">
<text id="Luiz G S Brito_2" fill="#FBF9FC" xml:space="preserve" style="white-space: pre" font-family="Sora" font-size="14.5386" font-weight="bold" letter-spacing="0em"><tspan x="308.617" y="112.988">Luiz G S Brito</tspan></text>
<path id="Union_4" fill-rule="evenodd" clip-rule="evenodd" d="M271.439 98.8372V97.3412C271.439 97.3402 271.44 97.3387 271.44 97.3368C271.446 97.32 271.463 97.2685 271.511 97.1848C271.584 97.0577 271.707 96.8993 271.891 96.7487C272.245 96.4579 272.859 96.1702 273.86 96.2436C278.037 96.5503 280.27 99.4078 280.27 101.411V114.746C280.27 114.779 280.268 114.805 280.266 114.825C280.245 114.828 280.218 114.829 280.183 114.829H277.609C277.575 114.829 277.547 114.828 277.527 114.825C277.524 114.805 277.523 114.779 277.523 114.746V102.437C277.523 101.514 277.073 100.622 276.439 99.973C275.802 99.321 274.903 98.8372 273.912 98.8372H271.439ZM273.912 100.255H271.439V114.746C271.439 115.11 271.374 115.557 271.031 115.883C270.696 116.202 270.258 116.248 269.934 116.248H267.313C267.005 116.248 266.601 116.189 266.274 115.904C265.927 115.601 265.809 115.173 265.809 114.746V102.297C265.809 101.555 266.22 100.707 266.78 100.069C267.35 99.4204 268.207 98.8372 269.232 98.8372H270.021V97.3083C270.021 97.0244 270.14 96.7229 270.283 96.4755C270.44 96.2042 270.673 95.9136 270.992 95.6522C271.642 95.119 272.619 94.7306 273.964 94.8293C278.679 95.1755 281.688 98.4771 281.688 101.411V114.746C281.688 115.096 281.609 115.507 281.303 115.826C280.992 116.15 280.573 116.248 280.183 116.248H277.609C277.22 116.248 276.801 116.15 276.489 115.826C276.183 115.507 276.105 115.096 276.105 114.746V102.437C276.105 101.965 275.862 101.411 275.425 100.964C274.99 100.519 274.438 100.255 273.912 100.255ZM269.232 100.255H270.021V114.746C270.021 114.777 270.02 114.804 270.018 114.827C269.994 114.829 269.966 114.829 269.934 114.829H267.313C267.279 114.829 267.252 114.828 267.231 114.825C267.228 114.805 267.227 114.779 267.227 114.746V102.297C267.227 102.014 267.424 101.486 267.846 101.005C268.259 100.535 268.759 100.255 269.232 100.255ZM293.834 116.204V117.7C293.831 117.709 293.816 117.763 293.762 117.856C293.688 117.983 293.566 118.141 293.382 118.292C293.027 118.583 292.414 118.871 291.413 118.797C287.235 118.49 285.003 115.633 285.003 113.63V100.295C285.003 100.262 285.005 100.236 285.007 100.216C285.027 100.213 285.055 100.211 285.089 100.211H287.663C287.698 100.211 287.725 100.213 287.746 100.216C287.748 100.236 287.75 100.262 287.75 100.295V112.604C287.75 113.526 288.2 114.419 288.834 115.068C289.471 115.72 290.37 116.204 291.361 116.204H293.834ZM291.361 114.785H293.834L293.834 100.295C293.834 99.9311 293.898 99.484 294.242 99.1575C294.577 98.8388 295.015 98.7932 295.339 98.7932H297.96C298.268 98.7932 298.671 98.8513 298.999 99.1368C299.346 99.4393 299.464 99.868 299.464 100.295V112.744C299.464 113.486 299.053 114.333 298.492 114.972C297.923 115.62 297.066 116.204 296.041 116.204H295.252V117.732C295.252 118.016 295.133 118.318 294.99 118.565C294.833 118.837 294.6 119.127 294.281 119.389C293.631 119.922 292.654 120.31 291.309 120.211C286.594 119.865 283.585 116.564 283.585 113.63V100.295C283.585 99.9447 283.663 99.5341 283.97 99.2152C284.281 98.8908 284.7 98.7932 285.089 98.7932H287.663C288.053 98.7932 288.472 98.8908 288.783 99.2152C289.09 99.5341 289.168 99.9447 289.168 100.295V112.604C289.168 113.076 289.411 113.629 289.848 114.077C290.283 114.521 290.835 114.785 291.361 114.785ZM296.041 114.785H295.252V100.295C295.252 100.264 295.253 100.237 295.255 100.214C295.278 100.212 295.306 100.211 295.339 100.211H297.96C297.994 100.211 298.021 100.213 298.042 100.215C298.044 100.235 298.046 100.262 298.046 100.295V112.744C298.046 113.027 297.849 113.555 297.427 114.036C297.014 114.506 296.514 114.785 296.041 114.785Z" fill="white"/>
</g>
<g id="component-menu" clip-path="url(#clip0_38_6100)">
<rect id="Rectangle 426_3" x="213.834" y="564.896" width="82.0556" height="89.7483" rx="2.4231" fill="#9C4FB4"/>
<text id="Transferir" fill="#EDEAEF" xml:space="preserve" style="white-space: pre" font-family="Source Sans Pro" font-size="11.8349" letter-spacing="0em"><tspan x="222.711" y="644.668">Transferir</tspan></text>
<rect id="Rectangle 427_2" x="399.249" y="564.896" width="82.0556" height="89.7483" rx="2.4231" fill="#9C4FB4"/>
<text id="Cobrar" fill="#EDEAEF" xml:space="preserve" style="white-space: pre" font-family="Source Sans Pro" font-size="11.8349" letter-spacing="0em"><tspan x="407.964" y="644.787">Cobrar</tspan></text>
<rect id="Rectangle 428_2" x="306.542" y="564.896" width="82.0556" height="89.7483" rx="2.4231" fill="#9C4FB4"/>
<text id="Depositar" fill="#EDEAEF" xml:space="preserve" style="white-space: pre" font-family="Source Sans Pro" font-size="11.8349" letter-spacing="0em"><tspan x="315.418" y="644.668">Depositar </tspan></text>
<g id="Group 328_2">
<g id="Group 323_2">
<path id="Vector_38" d="M232.485 579.69V590.538" stroke="#EDEAEF" stroke-width="0.807701" stroke-linecap="round" stroke-linejoin="round"/>
<path id="Vector_39" d="M234.944 581.662H231.256C230.8 581.662 230.362 581.844 230.039 582.168C229.716 582.491 229.535 582.93 229.535 583.388C229.535 583.846 229.716 584.285 230.039 584.608C230.362 584.932 230.8 585.114 231.256 585.114H233.715C234.171 585.114 234.609 585.296 234.932 585.62C235.254 585.943 235.436 586.382 235.436 586.84C235.436 587.298 235.254 587.737 234.932 588.06C234.609 588.384 234.171 588.566 233.715 588.566H229.535" stroke="#EDEAEF" stroke-width="0.807701" stroke-linecap="round" stroke-linejoin="round"/>
</g>
<path id="Vector_40" d="M232.485 575.745C227.054 575.745 222.651 580.16 222.651 585.607C222.651 591.054 227.054 595.469 232.485 595.469C237.917 595.469 242.319 591.054 242.319 585.607C242.319 584.393 242.101 583.229 241.7 582.155" stroke="#EDEAEF" stroke-width="0.807701" stroke-linecap="round" stroke-linejoin="round"/>
<g id="Group 324_2">
<path id="Vector_41" d="M243.303 576.731L239.37 572.786L235.436 576.731" stroke="#EDEAEF" stroke-width="0.807701" stroke-linecap="round" stroke-linejoin="round"/>
<path id="Vector_42" d="M239.37 580.676V572.786" stroke="#EDEAEF" stroke-width="0.807701" stroke-linecap="round" stroke-linejoin="round"/>
</g>
</g>
<g id="Group 329_2">
<g id="Group 325_2">
<path id="Vector_43" d="M324.925 579.69V590.538" stroke="#EDEAEF" stroke-width="0.807701" stroke-linecap="round" stroke-linejoin="round"/>
<path id="Vector_44" d="M327.384 581.662H323.696C323.24 581.662 322.802 581.844 322.479 582.168C322.156 582.491 321.975 582.93 321.975 583.388C321.975 583.846 322.156 584.285 322.479 584.608C322.802 584.932 323.24 585.114 323.696 585.114H326.155C326.611 585.114 327.049 585.296 327.371 585.62C327.694 585.943 327.876 586.382 327.876 586.84C327.876 587.298 327.694 587.737 327.371 588.06C327.049 588.384 326.611 588.566 326.155 588.566H321.975" stroke="#EDEAEF" stroke-width="0.807701" stroke-linecap="round" stroke-linejoin="round"/>
</g>
<path id="Vector_45" d="M324.925 575.745C319.494 575.745 315.091 580.16 315.091 585.607C315.091 591.054 319.494 595.469 324.925 595.469C330.357 595.469 334.759 591.054 334.759 585.607C334.759 584.393 334.54 583.229 334.14 582.155" stroke="#EDEAEF" stroke-width="0.807701" stroke-linecap="round" stroke-linejoin="round"/>
<g id="Group 327_2">
<path id="Vector_46" d="M327.875 576.731L331.809 580.676L335.743 576.731" stroke="#EDEAEF" stroke-width="0.807701" stroke-linecap="round" stroke-linejoin="round"/>
<path id="Vector_47" d="M331.809 572.786V580.676" stroke="#EDEAEF" stroke-width="0.807701" stroke-linecap="round" stroke-linejoin="round"/>
</g>
</g>
<g id="Group 330_2">
<g id="Group 326_2">
<path id="Vector_48" d="M417.589 578.703V586.758" stroke="#EDEAEF" stroke-width="0.807701" stroke-linecap="round" stroke-linejoin="round"/>
<path id="Vector_49" d="M419.414 580.168H416.676C416.337 580.168 416.012 580.303 415.773 580.543C415.533 580.783 415.398 581.109 415.398 581.449C415.398 581.789 415.533 582.115 415.773 582.355C416.012 582.595 416.337 582.73 416.676 582.73H418.501C418.84 582.73 419.165 582.865 419.405 583.106C419.644 583.346 419.779 583.672 419.779 584.012C419.779 584.352 419.644 584.677 419.405 584.918C419.165 585.158 418.84 585.293 418.501 585.293H415.398" stroke="#EDEAEF" stroke-width="0.807701" stroke-linecap="round" stroke-linejoin="round"/>
</g>
<path id="Vector_50" d="M426.215 587.579C426.215 588.103 426.008 588.604 425.639 588.974C425.27 589.344 424.77 589.552 424.249 589.552H412.448L408.514 593.497V577.717C408.514 577.194 408.721 576.692 409.09 576.322C409.459 575.952 409.959 575.745 410.481 575.745H424.249C424.77 575.745 425.27 575.952 425.639 576.322C426.008 576.692 426.215 577.194 426.215 577.717V587.579Z" stroke="#EDEAEF" stroke-width="0.807701" stroke-linecap="round" stroke-linejoin="round"/>
</g>
<rect id="Rectangle 429" x="491.956" y="564.896" width="16.7662" height="89.7483" rx="2.4231" fill="#9C4FB4"/>
</g>
</g>
</g>
<g id="Fingu-screen3">
<g id="fignu2-screen4"  class="fignu2-screen4">
<path id="Vector_51" d="M347.543 135.736L353.444 141.653L359.344 135.736" stroke="#FBF9FC" stroke-width="0.986024" stroke-linecap="round" stroke-linejoin="round"/>
<rect id="Rectangle 427_3" x="222.706" y="227.415" width="260.31" height="260.31" rx="4.93012" fill="#FEFBFF"/>
<text id="Fatura atual" fill="#54B9C7" xml:space="preserve" style="white-space: pre" font-family="Source Sans Pro" font-size="11.8323" letter-spacing="0em"><tspan x="237.539" y="335.293">FATURA ATUAL </tspan></text>
<text id="Limite dispon&#195;&#173;vel" fill="#3C3B3D" xml:space="preserve" style="white-space: pre" font-family="Source Sans Pro" font-size="8.87422" letter-spacing="0em"><tspan x="237.539" y="381.819">Limite dispon&#xed;vel</tspan></text>
<text id="Cart&#195;&#163;o de cr&#195;&#169;dito" fill="#3C3B3D" xml:space="preserve" style="white-space: pre" font-family="Source Sans Pro" font-size="11.8323" letter-spacing="0em"><tspan x="276.309" y="254.523">Cart&#xe3;o de cr&#xe9;dito</tspan></text>
<g id="R$ 150,64">
<text fill="#54B9C7" xml:space="preserve" style="white-space: pre" font-family="Sora" font-size="23.6646" letter-spacing="0em"><tspan x="235.923" y="363.287">R$</tspan><tspan x="316.3" y="363.287">,64</tspan></text>
<text fill="#54B9C7" xml:space="preserve" style="white-space: pre" font-family="Sora" font-size="23.6646" font-weight="bold" letter-spacing="0em"><tspan x="267.931" y="363.287"> 150</tspan></text>
</g>
<text id="R$ 150,64_2" fill="#9EC249" xml:space="preserve" style="white-space: pre" font-family="Sora" font-size="8.87422" font-weight="bold" letter-spacing="0em"><tspan x="305.386" y="381.682">R$ 150,64</tspan></text>
<g id="Group 324_3">
<path id="Vector_52" d="M441.95 254.085C441.95 254.085 445.884 246.195 452.768 246.195C459.651 246.195 463.585 254.085 463.585 254.085C463.585 254.085 459.651 261.975 452.768 261.975C445.884 261.975 441.95 254.085 441.95 254.085Z" stroke="#3C3B3D" stroke-width="0.986024" stroke-linecap="round" stroke-linejoin="round"/>
<path id="Vector_53" d="M452.768 257.044C454.397 257.044 455.718 255.719 455.718 254.085C455.718 252.451 454.397 251.127 452.768 251.127C451.138 251.127 449.817 252.451 449.817 254.085C449.817 255.719 451.138 257.044 452.768 257.044Z" stroke="#3C3B3D" stroke-width="0.986024" stroke-linecap="round" stroke-linejoin="round"/>
</g>
<circle id="Ellipse 16_2" cx="338.071" cy="504.487" r="2.95807" fill="#BB71D2"/>
<circle id="Ellipse 17_2" cx="353.848" cy="504.487" r="2.95807" fill="#EDEAEF"/>
<circle id="Ellipse 18_2" cx="369.624" cy="504.487" r="2.95807" fill="#BB71D2"/>
<g id="Group 325_3">
<path id="Vector_54" d="M258.054 243.237H240.353C239.266 243.237 238.386 244.12 238.386 245.209V257.044C238.386 258.133 239.266 259.017 240.353 259.017H258.054C259.14 259.017 260.021 258.133 260.021 257.044V245.209C260.021 244.12 259.14 243.237 258.054 243.237Z" stroke="#3C3B3D" stroke-width="0.986024" stroke-linecap="round" stroke-linejoin="round"/>
<path id="Vector_55" d="M238.386 249.154H260.021" stroke="#3C3B3D" stroke-width="0.986024" stroke-linecap="round" stroke-linejoin="round"/>
</g>
<path id="Rectangle 428_3" d="M478.086 227.415V227.415C480.809 227.415 483.017 229.622 483.017 232.345V289.534H478.086V227.415Z" fill="#F3AE3C"/>
<rect id="Rectangle 429_2" x="478.086" y="289.534" width="4.93012" height="62.1195" fill="#54B9C7"/>
<rect id="Rectangle 430" x="478.086" y="351.654" width="4.93012" height="88.7422" fill="#9EC249"/>
<path id="Rectangle 431" d="M222.706 428.564H483.017V482.795C483.017 485.518 480.809 487.725 478.086 487.725H227.636C224.913 487.725 222.706 485.518 222.706 482.795V428.564Z" fill="#EDEAEF"/>
<text id="Transfer&#195;&#170;ncia de R$ 500,00 feita para Juliana ontem_2" fill="#3C3B3D" xml:space="preserve" style="white-space: pre" font-family="Source Sans Pro" font-size="8.87422" letter-spacing="0em"><tspan x="281.868" y="456.453">Transfer&#xea;ncia de R$ 500,00 feita para Juliana&#10;</tspan><tspan x="281.868" y="468.453">ontem</tspan></text>
<g id="Group 326_3">
<path id="Vector_56" d="M252.153 454.293V465.142" stroke="#3C3B3D" stroke-width="0.986024" stroke-linecap="round" stroke-linejoin="round"/>
<path id="Vector_57" d="M254.612 456.266H250.924C250.468 456.266 250.03 456.448 249.707 456.771C249.384 457.095 249.203 457.534 249.203 457.992C249.203 458.449 249.384 458.888 249.707 459.212C250.03 459.536 250.468 459.718 250.924 459.718H253.383C253.839 459.718 254.277 459.9 254.599 460.223C254.922 460.547 255.104 460.986 255.104 461.444C255.104 461.901 254.922 462.34 254.599 462.664C254.277 462.988 253.839 463.17 253.383 463.17H249.203" stroke="#3C3B3D" stroke-width="0.986024" stroke-linecap="round" stroke-linejoin="round"/>
</g>
<path id="Vector_58" d="M252.153 450.348C246.722 450.348 242.319 454.764 242.319 460.211C242.319 465.658 246.722 470.073 252.153 470.073C257.585 470.073 261.987 465.658 261.987 460.211C261.987 458.996 261.769 457.833 261.368 456.759" stroke="#3C3B3D" stroke-width="0.986024" stroke-linecap="round" stroke-linejoin="round"/>
<g id="Group 327_3">
<path id="Vector_59" d="M262.971 451.334L259.037 447.389L255.104 451.334" stroke="#3C3B3D" stroke-width="0.986024" stroke-linecap="round" stroke-linejoin="round"/>
<path id="Vector_60" d="M259.037 455.279V447.389" stroke="#3C3B3D" stroke-width="0.986024" stroke-linecap="round" stroke-linejoin="round"/>
</g>
<path id="Vector_61" d="M460.635 465.142L466.535 459.224L460.635 453.307" stroke="#3C3B3D" stroke-width="0.986024" stroke-linecap="round" stroke-linejoin="round"/>
<g id="Group 328_3">
<g id="Group 32_3">
<rect id="Rectangle 421_3" x="443.576" y="55.0723" width="2.57108" height="3.30567" rx="0.986024" fill="white"/>
<rect id="Rectangle 422_3" x="447.249" y="53.6031" width="2.57108" height="4.77486" rx="0.986024" fill="white"/>
<rect id="Rectangle 423_3" x="450.922" y="51.7666" width="2.57108" height="6.61135" rx="0.986024" fill="white"/>
<rect id="Rectangle 424_3" x="454.595" y="49.9301" width="2.57108" height="8.44783" rx="0.986024" fill="white"/>
</g>
<g id="Group 34_3">
<path id="Vector 36_4" d="M492.877 56.2801V53.4404C493.666 53.9137 493.824 54.387 493.824 54.8602C493.824 55.3335 493.666 55.8068 492.877 56.2801Z" fill="white" fill-opacity="0.5"/>
<rect id="Rectangle 413_3" x="477.416" y="51.2316" width="14.5143" height="7.25714" rx="1.57764" stroke="white" stroke-opacity="0.5" stroke-width="0.631056"/>
<rect id="Rectangle 414_3" x="478.363" y="52.1782" width="12.6211" height="5.36397" rx="0.946583" fill="#FBF9FC"/>
</g>
<g id="Group 33_3">
<path id="Subtract_6" fill-rule="evenodd" clip-rule="evenodd" d="M472.423 52.43L471.239 53.6134C470.095 52.5515 468.563 51.9022 466.88 51.9022C465.189 51.9022 463.652 52.5566 462.506 53.626L461.324 52.4438C462.679 50.9027 464.666 49.9301 466.88 49.9301C469.086 49.9301 471.068 50.8969 472.423 52.43Z" fill="white"/>
<path id="Subtract_7" fill-rule="evenodd" clip-rule="evenodd" d="M471.549 56.5241C471.549 56.5239 471.549 56.5237 471.549 56.5235L471.548 56.5241L471.549 56.5241ZM464.532 55.9244L463.489 54.7861C464.43 53.8596 465.738 53.3114 467.162 53.3731C468.46 53.4294 469.62 53.9832 470.464 54.8426L469.309 55.9013C468.713 55.381 467.943 55.0519 467.09 55.0149C466.113 54.9726 465.21 55.3222 464.532 55.9244Z" fill="white"/>
<path id="Vector 37_4" d="M466.879 58.3113L465.4 56.8323C465.872 56.3847 466.222 56.1749 466.879 56.1749C467.537 56.1749 467.883 56.3429 468.358 56.8323L466.879 58.3113Z" fill="white"/>
</g>
<text id="22:31_3" fill="white" xml:space="preserve" style="white-space: pre" font-family="Cairo" font-size="12.8183" font-weight="bold" letter-spacing="0em"><tspan x="222.706" y="58.6915">22:31</tspan></text>
</g>
<g id="Group 329_3">
<text id="Luiz G S Brito_3" fill="#FBF9FC" xml:space="preserve" style="white-space: pre" font-family="Sora" font-size="14.5386" font-weight="bold" letter-spacing="0em"><tspan x="309.424" y="112.989">Luiz G S Brito</tspan></text>
<path id="Union_5" fill-rule="evenodd" clip-rule="evenodd" d="M272.246 98.8385V97.3425C272.247 97.3415 272.247 97.34 272.248 97.3381C272.253 97.3213 272.27 97.2698 272.319 97.1861C272.392 97.059 272.515 96.9006 272.698 96.75C273.053 96.4591 273.667 96.1714 274.668 96.2449C278.845 96.5516 281.078 99.4091 281.078 101.413V114.747C281.078 114.78 281.076 114.806 281.074 114.826C281.053 114.829 281.026 114.831 280.991 114.831H278.417C278.382 114.831 278.355 114.829 278.334 114.826C278.332 114.806 278.33 114.78 278.33 114.747V102.438C278.33 101.516 277.881 100.623 277.247 99.9742C276.609 99.3223 275.711 98.8385 274.72 98.8385H272.246ZM274.72 100.257H272.246V114.747C272.246 115.111 272.182 115.558 271.839 115.885C271.504 116.203 271.065 116.249 270.742 116.249H268.121C267.812 116.249 267.409 116.191 267.082 115.905C266.735 115.603 266.616 115.174 266.616 114.747V102.298C266.616 101.556 267.028 100.709 267.588 100.07C268.158 99.4217 269.015 98.8385 270.039 98.8385H270.828V97.3095C270.828 97.0257 270.948 96.7242 271.091 96.4768C271.247 96.2055 271.48 95.9149 271.799 95.6535C272.449 95.1203 273.427 94.7319 274.772 94.8306C279.486 95.1767 282.496 98.4784 282.496 101.413V114.747C282.496 115.097 282.417 115.508 282.111 115.827C281.799 116.151 281.38 116.249 280.991 116.249H278.417C278.028 116.249 277.609 116.151 277.297 115.827C276.991 115.508 276.912 115.097 276.912 114.747V102.438C276.912 101.966 276.669 101.413 276.232 100.965C275.798 100.521 275.246 100.257 274.72 100.257ZM270.039 100.257H270.828V114.747C270.828 114.778 270.827 114.805 270.826 114.828C270.802 114.83 270.774 114.831 270.742 114.831H268.121C268.086 114.831 268.059 114.829 268.038 114.827C268.036 114.807 268.034 114.78 268.034 114.747V102.298C268.034 102.015 268.231 101.487 268.653 101.006C269.066 100.536 269.567 100.257 270.039 100.257ZM294.642 116.205V117.701C294.641 117.702 294.641 117.703 294.64 117.705C294.635 117.722 294.618 117.774 294.57 117.857C294.496 117.984 294.373 118.143 294.19 118.293C293.835 118.584 293.221 118.872 292.22 118.798C288.043 118.492 285.811 115.634 285.811 113.631V100.296C285.811 100.263 285.812 100.237 285.815 100.217C285.835 100.214 285.862 100.213 285.897 100.213H288.471C288.506 100.213 288.533 100.214 288.554 100.217C288.556 100.237 288.558 100.263 288.558 100.296V112.605C288.558 113.528 289.007 114.42 289.642 115.069C290.279 115.721 291.177 116.205 292.168 116.205H294.642ZM292.168 114.787H294.642L294.642 100.296C294.642 99.9324 294.706 99.4853 295.049 99.1587C295.385 98.8401 295.823 98.7945 296.146 98.7945H298.767C299.076 98.7945 299.479 98.8526 299.807 99.1381C300.153 99.4406 300.272 99.8693 300.272 100.296V112.745C300.272 113.487 299.861 114.335 299.3 114.973C298.731 115.622 297.874 116.205 296.849 116.205H296.06V117.734C296.06 118.018 295.94 118.319 295.797 118.566C295.641 118.838 295.408 119.128 295.089 119.39C294.439 119.923 293.461 120.311 292.117 120.213C287.402 119.867 284.393 116.565 284.393 113.631V100.296C284.393 99.946 284.471 99.5354 284.777 99.2165C285.089 98.892 285.508 98.7945 285.897 98.7945H288.471C288.86 98.7945 289.28 98.892 289.591 99.2165C289.897 99.5354 289.976 99.946 289.976 100.296V112.605C289.976 113.077 290.219 113.631 290.656 114.078C291.09 114.523 291.642 114.787 292.168 114.787ZM296.849 114.787H296.06V100.296C296.06 100.265 296.061 100.238 296.062 100.215C296.086 100.213 296.114 100.213 296.146 100.213H298.767C298.802 100.213 298.829 100.214 298.85 100.217C298.852 100.237 298.854 100.263 298.854 100.296V112.745C298.854 113.028 298.657 113.556 298.235 114.037C297.822 114.507 297.321 114.787 296.849 114.787Z" fill="white"/>
</g>
<g id="component-menu_2" clip-path="url(#clip1_38_6100)">
<rect id="Rectangle 426_4" x="213.834" y="564.897" width="82.0556" height="89.7483" rx="2.4231" fill="#9C4FB4"/>
<text id="Transferir_2" fill="#EDEAEF" xml:space="preserve" style="white-space: pre" font-family="Source Sans Pro" font-size="11.8349" letter-spacing="0em"><tspan x="222.711" y="644.669">Transferir</tspan></text>
<rect id="Rectangle 427_4" x="399.249" y="564.897" width="82.0556" height="89.7483" rx="2.4231" fill="#9C4FB4"/>
<text id="Cobrar_2" fill="#EDEAEF" xml:space="preserve" style="white-space: pre" font-family="Source Sans Pro" font-size="11.8349" letter-spacing="0em"><tspan x="407.964" y="644.788">Cobrar</tspan></text>
<rect id="Rectangle 428_4" x="306.542" y="564.897" width="82.0556" height="89.7483" rx="2.4231" fill="#9C4FB4"/>
<text id="Depositar_2" fill="#EDEAEF" xml:space="preserve" style="white-space: pre" font-family="Source Sans Pro" font-size="11.8349" letter-spacing="0em"><tspan x="315.418" y="644.669">Depositar </tspan></text>
<g id="Group 328_4">
<g id="Group 323_3">
<path id="Vector_62" d="M232.485 579.691V590.54" stroke="#EDEAEF" stroke-width="0.807701" stroke-linecap="round" stroke-linejoin="round"/>
<path id="Vector_63" d="M234.944 581.663H231.256C230.8 581.663 230.362 581.845 230.039 582.169C229.716 582.493 229.535 582.932 229.535 583.389C229.535 583.847 229.716 584.286 230.039 584.61C230.362 584.933 230.8 585.115 231.256 585.115H233.715C234.171 585.115 234.609 585.297 234.932 585.621C235.254 585.944 235.436 586.383 235.436 586.841C235.436 587.299 235.254 587.738 234.932 588.062C234.609 588.385 234.171 588.567 233.715 588.567H229.535" stroke="#EDEAEF" stroke-width="0.807701" stroke-linecap="round" stroke-linejoin="round"/>
</g>
<path id="Vector_64" d="M232.485 575.746C227.054 575.746 222.651 580.162 222.651 585.608C222.651 591.055 227.054 595.471 232.485 595.471C237.917 595.471 242.319 591.055 242.319 585.608C242.319 584.394 242.101 583.231 241.7 582.157" stroke="#EDEAEF" stroke-width="0.807701" stroke-linecap="round" stroke-linejoin="round"/>
<g id="Group 324_4">
<path id="Vector_65" d="M243.303 576.732L239.37 572.787L235.436 576.732" stroke="#EDEAEF" stroke-width="0.807701" stroke-linecap="round" stroke-linejoin="round"/>
<path id="Vector_66" d="M239.37 580.677V572.787" stroke="#EDEAEF" stroke-width="0.807701" stroke-linecap="round" stroke-linejoin="round"/>
</g>
</g>
<g id="Group 329_4">
<g id="Group 325_4">
<path id="Vector_67" d="M324.925 579.691V590.54" stroke="#EDEAEF" stroke-width="0.807701" stroke-linecap="round" stroke-linejoin="round"/>
<path id="Vector_68" d="M327.384 581.663H323.696C323.24 581.663 322.802 581.845 322.479 582.169C322.156 582.493 321.975 582.932 321.975 583.389C321.975 583.847 322.156 584.286 322.479 584.61C322.802 584.933 323.24 585.115 323.696 585.115H326.155C326.611 585.115 327.049 585.297 327.371 585.621C327.694 585.944 327.876 586.383 327.876 586.841C327.876 587.299 327.694 587.738 327.371 588.062C327.049 588.385 326.611 588.567 326.155 588.567H321.975" stroke="#EDEAEF" stroke-width="0.807701" stroke-linecap="round" stroke-linejoin="round"/>
</g>
<path id="Vector_69" d="M324.925 575.746C319.494 575.746 315.091 580.161 315.091 585.608C315.091 591.055 319.494 595.471 324.925 595.471C330.357 595.471 334.759 591.055 334.759 585.608C334.759 584.394 334.54 583.231 334.14 582.156" stroke="#EDEAEF" stroke-width="0.807701" stroke-linecap="round" stroke-linejoin="round"/>
<g id="Group 327_4">
<path id="Vector_70" d="M327.875 576.732L331.809 580.677L335.743 576.732" stroke="#EDEAEF" stroke-width="0.807701" stroke-linecap="round" stroke-linejoin="round"/>
<path id="Vector_71" d="M331.809 572.787V580.677" stroke="#EDEAEF" stroke-width="0.807701" stroke-linecap="round" stroke-linejoin="round"/>
</g>
</g>
<g id="Group 330_3">
<g id="Group 326_4">
<path id="Vector_72" d="M417.589 578.705V586.759" stroke="#EDEAEF" stroke-width="0.807701" stroke-linecap="round" stroke-linejoin="round"/>
<path id="Vector_73" d="M419.414 580.169H416.676C416.337 580.169 416.012 580.304 415.773 580.544C415.533 580.785 415.398 581.111 415.398 581.45C415.398 581.79 415.533 582.116 415.773 582.357C416.012 582.597 416.337 582.732 416.676 582.732H418.501C418.84 582.732 419.165 582.867 419.405 583.107C419.644 583.347 419.779 583.673 419.779 584.013C419.779 584.353 419.644 584.679 419.405 584.919C419.165 585.16 418.84 585.295 418.501 585.295H415.398" stroke="#EDEAEF" stroke-width="0.807701" stroke-linecap="round" stroke-linejoin="round"/>
</g>
<path id="Vector_74" d="M426.215 587.581C426.215 588.104 426.008 588.606 425.639 588.976C425.27 589.346 424.77 589.553 424.249 589.553H412.448L408.514 593.498V577.718C408.514 577.195 408.721 576.694 409.09 576.324C409.459 575.954 409.959 575.746 410.481 575.746H424.249C424.77 575.746 425.27 575.954 425.639 576.324C426.008 576.694 426.215 577.195 426.215 577.718V587.581Z" stroke="#EDEAEF" stroke-width="0.807701" stroke-linecap="round" stroke-linejoin="round"/>
</g>
<rect id="Rectangle 429_3" x="491.956" y="564.897" width="16.7662" height="89.7483" rx="2.4231" fill="#9C4FB4"/>
</g>
<rect id="Rectangle 432" x="303.77" y="683.102" width="98.6245" height="4.93123" rx="2.46561" fill="#EDEAEF"/>
</g>
</g>
<g id="Fingu-screen4">
<g id="fignu2-screen5"  class="fignu2-screen5">
<path id="Vector_75" d="M347.351 135.736L353.251 141.653L359.152 135.736" stroke="#FBF9FC" stroke-width="0.986024" stroke-linecap="round" stroke-linejoin="round"/>
<rect id="Rectangle 428_5" x="222.514" y="227.415" width="260.31" height="260.31" rx="4.93012" fill="#FEFBFF"/>
<text id="Nubank rewards" fill="#211F21" xml:space="preserve" style="white-space: pre" font-family="Sora" font-size="11.8323" font-weight="bold" letter-spacing="0em"><tspan x="289.04" y="335.918">NUBANK REWARDS</tspan></text>
<text id="Acumule pontos que nunca expiram e troque por passagens a&#195;&#169;reas ou servi&#195;&#167;os que voc&#195;&#170; realmente usa." fill="#3C3B3D" xml:space="preserve" style="white-space: pre" font-family="Source Sans Pro" font-size="8.87422" letter-spacing="0em"><tspan x="265.095" y="361.627">Acumule pontos que nunca expiram e troque por&#10;</tspan><tspan x="264.024" y="373.627">passagens a&#xe9;reas ou servi&#xe7;os que voc&#xea; realmente&#10;</tspan><tspan x="347.658" y="385.627">usa.</tspan></text>
<circle id="Ellipse 16_3" cx="337.879" cy="504.487" r="2.95807" fill="#BB71D2"/>
<circle id="Ellipse 17_3" cx="353.655" cy="504.487" r="2.95807" fill="#BB71D2"/>
<circle id="Ellipse 18_3" cx="369.432" cy="504.487" r="2.95807" fill="#EDEAEF"/>
<text id="ative o seu rewards" fill="#82269E" xml:space="preserve" style="white-space: pre" font-family="Source Sans Pro" font-size="8.87422" font-weight="bold" letter-spacing="0em"><tspan x="308.298" y="456.453">ATIVE O SEU REWARDS</tspan></text>
<rect id="Rectangle 429_4" x="256.443" y="434.884" width="197.383" height="38.6333" rx="2.55422" stroke="#82269E" stroke-width="0.807701"/>
<g id="Group 323_4">
<path id="Vector_76" d="M362.103 266.907V276.769H346.368V266.907" stroke="url(#paint2_linear_38_6100)" stroke-width="0.986024" stroke-linecap="round" stroke-linejoin="round"/>
<path id="Vector_77" d="M364.069 261.975H344.401V266.907H364.069V261.975Z" stroke="url(#paint3_linear_38_6100)" stroke-width="0.986024" stroke-linecap="round" stroke-linejoin="round"/>
<path id="Vector_78" d="M354.235 276.769V261.975" stroke="url(#paint4_linear_38_6100)" stroke-width="0.986024" stroke-linecap="round" stroke-linejoin="round"/>
<path id="Vector_79" d="M354.235 261.975H349.81C349.158 261.975 348.533 261.715 348.072 261.253C347.611 260.791 347.352 260.164 347.352 259.51C347.352 258.856 347.611 258.229 348.072 257.766C348.533 257.304 349.158 257.044 349.81 257.044C353.252 257.044 354.235 261.975 354.235 261.975Z" stroke="url(#paint5_linear_38_6100)" stroke-width="0.986024" stroke-linecap="round" stroke-linejoin="round"/>
<path id="Vector_80" d="M354.235 261.975H358.661C359.313 261.975 359.938 261.715 360.399 261.253C360.86 260.791 361.119 260.164 361.119 259.51C361.119 258.856 360.86 258.229 360.399 257.766C359.938 257.304 359.313 257.044 358.661 257.044C355.219 257.044 354.235 261.975 354.235 261.975Z" stroke="url(#paint6_linear_38_6100)" stroke-width="0.986024" stroke-linecap="round" stroke-linejoin="round"/>
</g>
<g id="Group 324_5">
<g id="Group 32_4">
<rect id="Rectangle 421_4" x="443.384" y="55.0723" width="2.57108" height="3.30567" rx="0.986024" fill="white"/>
<rect id="Rectangle 422_4" x="447.057" y="53.6031" width="2.57108" height="4.77486" rx="0.986024" fill="white"/>
<rect id="Rectangle 423_4" x="450.729" y="51.7666" width="2.57108" height="6.61135" rx="0.986024" fill="white"/>
<rect id="Rectangle 424_4" x="454.403" y="49.9301" width="2.57108" height="8.44783" rx="0.986024" fill="white"/>
</g>
<g id="Group 34_4">
<path id="Vector 36_5" d="M492.685 56.2801V53.4404C493.474 53.9137 493.632 54.387 493.632 54.8602C493.632 55.3335 493.474 55.8068 492.685 56.2801Z" fill="white" fill-opacity="0.5"/>
<rect id="Rectangle 413_4" x="477.224" y="51.2316" width="14.5143" height="7.25714" rx="1.57764" stroke="white" stroke-opacity="0.5" stroke-width="0.631056"/>
<rect id="Rectangle 414_4" x="478.171" y="52.1782" width="12.6211" height="5.36397" rx="0.946583" fill="#FBF9FC"/>
</g>
<g id="Group 33_4">
<path id="Subtract_8" fill-rule="evenodd" clip-rule="evenodd" d="M472.231 52.43L471.047 53.6134C469.904 52.5515 468.371 51.9022 466.688 51.9022C464.997 51.9022 463.46 52.5566 462.314 53.626L461.132 52.4438C462.488 50.9027 464.474 49.9301 466.688 49.9301C468.895 49.9301 470.876 50.8969 472.231 52.43Z" fill="white"/>
<path id="Subtract_9" fill-rule="evenodd" clip-rule="evenodd" d="M471.357 56.5241C471.357 56.5239 471.357 56.5237 471.357 56.5235L471.356 56.5241L471.357 56.5241ZM464.341 55.9245L463.297 54.7861C464.238 53.8596 465.546 53.3114 466.97 53.3731C468.268 53.4294 469.428 53.9832 470.272 54.8426L469.118 55.9013C468.521 55.381 467.751 55.0519 466.899 55.0149C465.921 54.9726 465.018 55.3222 464.341 55.9245Z" fill="white"/>
<path id="Vector 37_5" d="M466.688 58.3113L465.208 56.8323C465.68 56.3847 466.03 56.1749 466.688 56.1749C467.345 56.1749 467.691 56.3429 468.167 56.8323L466.688 58.3113Z" fill="white"/>
</g>
<text id="22:31_4" fill="white" xml:space="preserve" style="white-space: pre" font-family="Cairo" font-size="12.8183" font-weight="bold" letter-spacing="0em"><tspan x="222.514" y="58.6915">22:31</tspan></text>
</g>
<g id="Group 325_5">
<text id="Luiz G S Brito_4" fill="#FBF9FC" xml:space="preserve" style="white-space: pre" font-family="Sora" font-size="14.5386" font-weight="bold" letter-spacing="0em"><tspan x="309.232" y="112.989">Luiz G S Brito</tspan></text>
<path id="Union_6" fill-rule="evenodd" clip-rule="evenodd" d="M272.054 98.8385V97.3425C272.054 97.3415 272.055 97.34 272.055 97.3381C272.061 97.3213 272.078 97.2698 272.126 97.1861C272.2 97.059 272.322 96.9006 272.506 96.75C272.861 96.4591 273.474 96.1714 274.475 96.2449C278.653 96.5516 280.885 99.4091 280.885 101.413V114.747C280.885 114.78 280.883 114.806 280.881 114.826C280.861 114.829 280.833 114.831 280.799 114.831H278.225C278.19 114.831 278.163 114.829 278.142 114.826C278.14 114.806 278.138 114.78 278.138 114.747V102.438C278.138 101.516 277.689 100.623 277.054 99.9742C276.417 99.3223 275.518 98.8385 274.527 98.8385H272.054ZM274.527 100.257H272.054V114.747C272.054 115.111 271.99 115.558 271.646 115.885C271.311 116.203 270.873 116.249 270.549 116.249H267.928C267.62 116.249 267.217 116.191 266.889 115.905C266.542 115.603 266.424 115.174 266.424 114.747V102.298C266.424 101.556 266.835 100.709 267.396 100.07C267.965 99.4217 268.822 98.8385 269.847 98.8385H270.636V97.3095C270.636 97.0257 270.755 96.7242 270.898 96.4768C271.055 96.2055 271.288 95.9149 271.607 95.6535C272.257 95.1203 273.234 94.7319 274.579 94.8306C279.294 95.1767 282.303 98.4784 282.303 101.413V114.747C282.303 115.097 282.225 115.508 281.918 115.827C281.607 116.151 281.188 116.249 280.799 116.249H278.225C277.835 116.249 277.416 116.151 277.105 115.827C276.799 115.508 276.72 115.097 276.72 114.747V102.438C276.72 101.966 276.477 101.413 276.04 100.965C275.605 100.521 275.053 100.257 274.527 100.257ZM269.847 100.257H270.636V114.747C270.636 114.778 270.635 114.805 270.634 114.828C270.61 114.83 270.582 114.831 270.549 114.831H267.928C267.894 114.831 267.867 114.829 267.846 114.827C267.844 114.807 267.842 114.78 267.842 114.747V102.298C267.842 102.015 268.039 101.487 268.461 101.006C268.874 100.536 269.374 100.257 269.847 100.257ZM294.449 116.205V117.701C294.449 117.702 294.449 117.703 294.448 117.705C294.442 117.722 294.425 117.774 294.377 117.857C294.304 117.984 294.181 118.143 293.997 118.293C293.643 118.584 293.029 118.872 292.028 118.798C287.851 118.492 285.618 115.634 285.618 113.631V100.296C285.618 100.263 285.62 100.237 285.622 100.217C285.643 100.214 285.67 100.213 285.705 100.213H288.279C288.314 100.213 288.341 100.214 288.361 100.217C288.364 100.237 288.365 100.263 288.365 100.296V112.605C288.365 113.528 288.815 114.42 289.449 115.069C290.086 115.721 290.985 116.205 291.976 116.205H294.449ZM291.976 114.787H294.449L294.449 100.296C294.449 99.9324 294.514 99.4853 294.857 99.1587C295.192 98.8401 295.63 98.7945 295.954 98.7945H298.575C298.883 98.7945 299.287 98.8526 299.614 99.1381C299.961 99.4406 300.08 99.8693 300.08 100.296V112.745C300.08 113.487 299.668 114.335 299.108 114.973C298.538 115.622 297.681 116.205 296.656 116.205H295.868V117.734C295.868 118.018 295.748 118.319 295.605 118.566C295.448 118.838 295.215 119.128 294.897 119.39C294.246 119.923 293.269 120.311 291.924 120.213C287.209 119.867 284.2 116.565 284.2 113.631V100.296C284.2 99.946 284.279 99.5354 284.585 99.2165C284.896 98.892 285.316 98.7945 285.705 98.7945H288.279C288.668 98.7945 289.087 98.892 289.399 99.2165C289.705 99.5354 289.783 99.946 289.783 100.296V112.605C289.783 113.077 290.026 113.631 290.463 114.078C290.898 114.523 291.45 114.787 291.976 114.787ZM296.656 114.787H295.868V100.296C295.868 100.265 295.868 100.238 295.87 100.215C295.894 100.213 295.922 100.213 295.954 100.213H298.575C298.609 100.213 298.637 100.214 298.658 100.217C298.66 100.237 298.661 100.263 298.661 100.296V112.745C298.661 113.028 298.465 113.556 298.042 114.037C297.629 114.507 297.129 114.787 296.656 114.787Z" fill="white"/>
</g>
<g id="component-menu_3" clip-path="url(#clip2_38_6100)">
<rect id="Rectangle 426_5" x="212.834" y="564.897" width="82.0556" height="89.7483" rx="2.4231" fill="#9C4FB4"/>
<text id="Transferir_3" fill="#EDEAEF" xml:space="preserve" style="white-space: pre" font-family="Source Sans Pro" font-size="11.8349" letter-spacing="0em"><tspan x="221.711" y="644.669">Transferir</tspan></text>
<rect id="Rectangle 427_5" x="398.249" y="564.897" width="82.0556" height="89.7483" rx="2.4231" fill="#9C4FB4"/>
<text id="Cobrar_3" fill="#EDEAEF" xml:space="preserve" style="white-space: pre" font-family="Source Sans Pro" font-size="11.8349" letter-spacing="0em"><tspan x="406.964" y="644.788">Cobrar</tspan></text>
<rect id="Rectangle 428_6" x="305.542" y="564.897" width="82.0556" height="89.7483" rx="2.4231" fill="#9C4FB4"/>
<text id="Depositar_3" fill="#EDEAEF" xml:space="preserve" style="white-space: pre" font-family="Source Sans Pro" font-size="11.8349" letter-spacing="0em"><tspan x="314.418" y="644.669">Depositar </tspan></text>
<g id="Group 328_5">
<g id="Group 323_5">
<path id="Vector_81" d="M231.485 579.691V590.54" stroke="#EDEAEF" stroke-width="0.807701" stroke-linecap="round" stroke-linejoin="round"/>
<path id="Vector_82" d="M233.944 581.663H230.256C229.8 581.663 229.362 581.845 229.039 582.169C228.716 582.493 228.535 582.932 228.535 583.389C228.535 583.847 228.716 584.286 229.039 584.61C229.362 584.933 229.8 585.115 230.256 585.115H232.715C233.171 585.115 233.609 585.297 233.932 585.621C234.254 585.944 234.436 586.383 234.436 586.841C234.436 587.299 234.254 587.738 233.932 588.062C233.609 588.385 233.171 588.567 232.715 588.567H228.535" stroke="#EDEAEF" stroke-width="0.807701" stroke-linecap="round" stroke-linejoin="round"/>
</g>
<path id="Vector_83" d="M231.485 575.746C226.054 575.746 221.651 580.162 221.651 585.608C221.651 591.055 226.054 595.471 231.485 595.471C236.917 595.471 241.319 591.055 241.319 585.608C241.319 584.394 241.101 583.231 240.7 582.157" stroke="#EDEAEF" stroke-width="0.807701" stroke-linecap="round" stroke-linejoin="round"/>
<g id="Group 324_6">
<path id="Vector_84" d="M242.303 576.732L238.37 572.787L234.436 576.732" stroke="#EDEAEF" stroke-width="0.807701" stroke-linecap="round" stroke-linejoin="round"/>
<path id="Vector_85" d="M238.37 580.677V572.787" stroke="#EDEAEF" stroke-width="0.807701" stroke-linecap="round" stroke-linejoin="round"/>
</g>
</g>
<g id="Group 329_5">
<g id="Group 325_6">
<path id="Vector_86" d="M323.925 579.691V590.54" stroke="#EDEAEF" stroke-width="0.807701" stroke-linecap="round" stroke-linejoin="round"/>
<path id="Vector_87" d="M326.384 581.663H322.696C322.24 581.663 321.802 581.845 321.479 582.169C321.156 582.493 320.975 582.932 320.975 583.389C320.975 583.847 321.156 584.286 321.479 584.61C321.802 584.933 322.24 585.115 322.696 585.115H325.155C325.611 585.115 326.049 585.297 326.371 585.621C326.694 585.944 326.876 586.383 326.876 586.841C326.876 587.299 326.694 587.738 326.371 588.062C326.049 588.385 325.611 588.567 325.155 588.567H320.975" stroke="#EDEAEF" stroke-width="0.807701" stroke-linecap="round" stroke-linejoin="round"/>
</g>
<path id="Vector_88" d="M323.925 575.746C318.494 575.746 314.091 580.161 314.091 585.608C314.091 591.055 318.494 595.471 323.925 595.471C329.357 595.471 333.759 591.055 333.759 585.608C333.759 584.394 333.54 583.231 333.14 582.156" stroke="#EDEAEF" stroke-width="0.807701" stroke-linecap="round" stroke-linejoin="round"/>
<g id="Group 327_5">
<path id="Vector_89" d="M326.875 576.732L330.809 580.677L334.743 576.732" stroke="#EDEAEF" stroke-width="0.807701" stroke-linecap="round" stroke-linejoin="round"/>
<path id="Vector_90" d="M330.809 572.787V580.677" stroke="#EDEAEF" stroke-width="0.807701" stroke-linecap="round" stroke-linejoin="round"/>
</g>
</g>
<g id="Group 330_4">
<g id="Group 326_5">
<path id="Vector_91" d="M416.589 578.705V586.759" stroke="#EDEAEF" stroke-width="0.807701" stroke-linecap="round" stroke-linejoin="round"/>
<path id="Vector_92" d="M418.414 580.169H415.676C415.337 580.169 415.012 580.304 414.773 580.544C414.533 580.785 414.398 581.111 414.398 581.45C414.398 581.79 414.533 582.116 414.773 582.357C415.012 582.597 415.337 582.732 415.676 582.732H417.501C417.84 582.732 418.165 582.867 418.405 583.107C418.644 583.347 418.779 583.673 418.779 584.013C418.779 584.353 418.644 584.679 418.405 584.919C418.165 585.16 417.84 585.295 417.501 585.295H414.398" stroke="#EDEAEF" stroke-width="0.807701" stroke-linecap="round" stroke-linejoin="round"/>
</g>
<path id="Vector_93" d="M425.215 587.581C425.215 588.104 425.008 588.606 424.639 588.976C424.27 589.346 423.77 589.553 423.249 589.553H411.448L407.514 593.498V577.718C407.514 577.195 407.721 576.694 408.09 576.324C408.459 575.954 408.959 575.746 409.481 575.746H423.249C423.77 575.746 424.27 575.954 424.639 576.324C425.008 576.694 425.215 577.195 425.215 577.718V587.581Z" stroke="#EDEAEF" stroke-width="0.807701" stroke-linecap="round" stroke-linejoin="round"/>
</g>
<rect id="Rectangle 429_5" x="490.956" y="564.897" width="16.7662" height="89.7483" rx="2.4231" fill="#9C4FB4"/>
</g>
<rect id="Rectangle 430_2" x="303.578" y="683.102" width="98.6245" height="4.93123" rx="2.46561" fill="#EDEAEF"/>
</g>
</g>
<g id="fignu2-icon1" class="fignu2-icon1">
<g id="Rectangle 890" filter="url(#filter2_dddd_38_6100)">
<rect x="481" y="530" width="140" height="140" rx="32.3077" fill="#FEFBFF"/>
</g>
<path id="Vector_94" d="M575 583L542 616L527 601" stroke="url(#paint7_linear_38_6100)" stroke-width="5.96174" stroke-linecap="round" stroke-linejoin="round"/>
</g>
<g id="fignu2-icon3"  class="fignu2-icon3">
<g id="Rectangle 884" filter="url(#filter3_dddd_38_6100)">
<rect x="481" y="95" width="140" height="140" rx="32.3077" fill="#FEFBFF"/>
</g>
<g id="Group 289">
<path id="Vector_95" d="M551 132V198" stroke="url(#paint8_linear_38_6100)" stroke-width="5.96174" stroke-linecap="round" stroke-linejoin="round"/>
<path id="Vector_96" d="M566 144H543.5C540.715 144 538.045 145.106 536.075 147.075C534.106 149.044 533 151.715 533 154.5C533 157.285 534.106 159.955 536.075 161.924C538.045 163.894 540.715 165 543.5 165H558.5C561.285 165 563.955 166.106 565.925 168.075C567.894 170.044 569 172.715 569 175.5C569 178.285 567.894 180.955 565.925 182.924C563.955 184.894 561.285 186 558.5 186H533" stroke="url(#paint9_linear_38_6100)" stroke-width="5.96174" stroke-linecap="round" stroke-linejoin="round"/>
</g>
</g>
<g id="fignu2-icon5"  class="fignu2-icon5">
<g id="Rectangle 879" filter="url(#filter4_dddd_38_6100)">
<rect x="80" y="175" width="140" height="140" rx="32.3077" fill="#FEFBFF"/>
</g>
<path id="Vector_97" d="M150 275C150 275 174 263 174 245V224L150 215L126 224V245C126 263 150 275 150 275Z" stroke="url(#paint10_linear_38_6100)" stroke-width="5.96174" stroke-linecap="round" stroke-linejoin="round"/>
</g>
</g>
<defs>
<filter id="filter0_d_38_6100" x="508" y="163" width="13.2842" height="83.0707" filterUnits="userSpaceOnUse" color-interpolation-filters="sRGB">
<feFlood flood-opacity="0" result="BackgroundImageFix"/>
<feColorMatrix in="SourceAlpha" type="matrix" values="0 0 0 0 0 0 0 0 0 0 0 0 0 0 0 0 0 0 127 0" result="hardAlpha"/>
<feOffset dx="-2"/>
<feGaussianBlur stdDeviation="2.5"/>
<feColorMatrix type="matrix" values="0 0 0 0 0 0 0 0 0 0 0 0 0 0 0 0 0 0 0.12 0"/>
<feBlend mode="normal" in2="BackgroundImageFix" result="effect1_dropShadow_38_6100"/>
<feBlend mode="normal" in="SourceGraphic" in2="effect1_dropShadow_38_6100" result="shape"/>
</filter>
<filter id="filter1_dddd_38_6100" x="109" y="0" width="488" height="846" filterUnits="userSpaceOnUse" color-interpolation-filters="sRGB">
<feFlood flood-opacity="0" result="BackgroundImageFix"/>
<feColorMatrix in="SourceAlpha" type="matrix" values="0 0 0 0 0 0 0 0 0 0 0 0 0 0 0 0 0 0 127 0" result="hardAlpha"/>
<feOffset dy="2.30969"/>
<feGaussianBlur stdDeviation="1.81152"/>
<feColorMatrix type="matrix" values="0 0 0 0 0.662745 0 0 0 0 0.313726 0 0 0 0 0.768627 0 0 0 0.0278729 0"/>
<feBlend mode="normal" in2="BackgroundImageFix" result="effect1_dropShadow_38_6100"/>
<feColorMatrix in="SourceAlpha" type="matrix" values="0 0 0 0 0 0 0 0 0 0 0 0 0 0 0 0 0 0 127 0" result="hardAlpha"/>
<feOffset dy="6.38599"/>
<feGaussianBlur stdDeviation="5.00862"/>
<feColorMatrix type="matrix" values="0 0 0 0 0.662745 0 0 0 0 0.313726 0 0 0 0 0.768627 0 0 0 0.04 0"/>
<feBlend mode="normal" in2="effect1_dropShadow_38_6100" result="effect2_dropShadow_38_6100"/>
<feColorMatrix in="SourceAlpha" type="matrix" values="0 0 0 0 0 0 0 0 0 0 0 0 0 0 0 0 0 0 127 0" result="hardAlpha"/>
<feOffset dy="15.375"/>
<feGaussianBlur stdDeviation="12.0588"/>
<feColorMatrix type="matrix" values="0 0 0 0 0.662745 0 0 0 0 0.313726 0 0 0 0 0.768627 0 0 0 0.0521271 0"/>
<feBlend mode="normal" in2="effect2_dropShadow_38_6100" result="effect3_dropShadow_38_6100"/>
<feColorMatrix in="SourceAlpha" type="matrix" values="0 0 0 0 0 0 0 0 0 0 0 0 0 0 0 0 0 0 127 0" result="hardAlpha"/>
<feOffset dy="51"/>
<feGaussianBlur stdDeviation="40"/>
<feColorMatrix type="matrix" values="0 0 0 0 0.662745 0 0 0 0 0.313726 0 0 0 0 0.768627 0 0 0 0.08 0"/>
<feBlend mode="normal" in2="effect3_dropShadow_38_6100" result="effect4_dropShadow_38_6100"/>
<feBlend mode="normal" in="SourceGraphic" in2="effect4_dropShadow_38_6100" result="shape"/>
</filter>
<filter id="filter2_dddd_38_6100" x="401" y="501" width="300" height="300" filterUnits="userSpaceOnUse" color-interpolation-filters="sRGB">
<feFlood flood-opacity="0" result="BackgroundImageFix"/>
<feColorMatrix in="SourceAlpha" type="matrix" values="0 0 0 0 0 0 0 0 0 0 0 0 0 0 0 0 0 0 127 0" result="hardAlpha"/>
<feOffset dy="2.30969"/>
<feGaussianBlur stdDeviation="1.81152"/>
<feColorMatrix type="matrix" values="0 0 0 0 0.662745 0 0 0 0 0.313726 0 0 0 0 0.768627 0 0 0 0.0278729 0"/>
<feBlend mode="normal" in2="BackgroundImageFix" result="effect1_dropShadow_38_6100"/>
<feColorMatrix in="SourceAlpha" type="matrix" values="0 0 0 0 0 0 0 0 0 0 0 0 0 0 0 0 0 0 127 0" result="hardAlpha"/>
<feOffset dy="6.38599"/>
<feGaussianBlur stdDeviation="5.00862"/>
<feColorMatrix type="matrix" values="0 0 0 0 0.662745 0 0 0 0 0.313726 0 0 0 0 0.768627 0 0 0 0.04 0"/>
<feBlend mode="normal" in2="effect1_dropShadow_38_6100" result="effect2_dropShadow_38_6100"/>
<feColorMatrix in="SourceAlpha" type="matrix" values="0 0 0 0 0 0 0 0 0 0 0 0 0 0 0 0 0 0 127 0" result="hardAlpha"/>
<feOffset dy="15.375"/>
<feGaussianBlur stdDeviation="12.0588"/>
<feColorMatrix type="matrix" values="0 0 0 0 0.662745 0 0 0 0 0.313726 0 0 0 0 0.768627 0 0 0 0.0521271 0"/>
<feBlend mode="normal" in2="effect2_dropShadow_38_6100" result="effect3_dropShadow_38_6100"/>
<feColorMatrix in="SourceAlpha" type="matrix" values="0 0 0 0 0 0 0 0 0 0 0 0 0 0 0 0 0 0 127 0" result="hardAlpha"/>
<feOffset dy="51"/>
<feGaussianBlur stdDeviation="40"/>
<feColorMatrix type="matrix" values="0 0 0 0 0.662745 0 0 0 0 0.313726 0 0 0 0 0.768627 0 0 0 0.08 0"/>
<feBlend mode="normal" in2="effect3_dropShadow_38_6100" result="effect4_dropShadow_38_6100"/>
<feBlend mode="normal" in="SourceGraphic" in2="effect4_dropShadow_38_6100" result="shape"/>
</filter>
<filter id="filter3_dddd_38_6100" x="401" y="66" width="300" height="300" filterUnits="userSpaceOnUse" color-interpolation-filters="sRGB">
<feFlood flood-opacity="0" result="BackgroundImageFix"/>
<feColorMatrix in="SourceAlpha" type="matrix" values="0 0 0 0 0 0 0 0 0 0 0 0 0 0 0 0 0 0 127 0" result="hardAlpha"/>
<feOffset dy="2.30969"/>
<feGaussianBlur stdDeviation="1.81152"/>
<feColorMatrix type="matrix" values="0 0 0 0 0.662745 0 0 0 0 0.313726 0 0 0 0 0.768627 0 0 0 0.0278729 0"/>
<feBlend mode="normal" in2="BackgroundImageFix" result="effect1_dropShadow_38_6100"/>
<feColorMatrix in="SourceAlpha" type="matrix" values="0 0 0 0 0 0 0 0 0 0 0 0 0 0 0 0 0 0 127 0" result="hardAlpha"/>
<feOffset dy="6.38599"/>
<feGaussianBlur stdDeviation="5.00862"/>
<feColorMatrix type="matrix" values="0 0 0 0 0.662745 0 0 0 0 0.313726 0 0 0 0 0.768627 0 0 0 0.04 0"/>
<feBlend mode="normal" in2="effect1_dropShadow_38_6100" result="effect2_dropShadow_38_6100"/>
<feColorMatrix in="SourceAlpha" type="matrix" values="0 0 0 0 0 0 0 0 0 0 0 0 0 0 0 0 0 0 127 0" result="hardAlpha"/>
<feOffset dy="15.375"/>
<feGaussianBlur stdDeviation="12.0588"/>
<feColorMatrix type="matrix" values="0 0 0 0 0.662745 0 0 0 0 0.313726 0 0 0 0 0.768627 0 0 0 0.0521271 0"/>
<feBlend mode="normal" in2="effect2_dropShadow_38_6100" result="effect3_dropShadow_38_6100"/>
<feColorMatrix in="SourceAlpha" type="matrix" values="0 0 0 0 0 0 0 0 0 0 0 0 0 0 0 0 0 0 127 0" result="hardAlpha"/>
<feOffset dy="51"/>
<feGaussianBlur stdDeviation="40"/>
<feColorMatrix type="matrix" values="0 0 0 0 0.662745 0 0 0 0 0.313726 0 0 0 0 0.768627 0 0 0 0.08 0"/>
<feBlend mode="normal" in2="effect3_dropShadow_38_6100" result="effect4_dropShadow_38_6100"/>
<feBlend mode="normal" in="SourceGraphic" in2="effect4_dropShadow_38_6100" result="shape"/>
</filter>
<filter id="filter4_dddd_38_6100" x="0" y="146" width="300" height="300" filterUnits="userSpaceOnUse" color-interpolation-filters="sRGB">
<feFlood flood-opacity="0" result="BackgroundImageFix"/>
<feColorMatrix in="SourceAlpha" type="matrix" values="0 0 0 0 0 0 0 0 0 0 0 0 0 0 0 0 0 0 127 0" result="hardAlpha"/>
<feOffset dy="2.30969"/>
<feGaussianBlur stdDeviation="1.81152"/>
<feColorMatrix type="matrix" values="0 0 0 0 0.662745 0 0 0 0 0.313726 0 0 0 0 0.768627 0 0 0 0.0278729 0"/>
<feBlend mode="normal" in2="BackgroundImageFix" result="effect1_dropShadow_38_6100"/>
<feColorMatrix in="SourceAlpha" type="matrix" values="0 0 0 0 0 0 0 0 0 0 0 0 0 0 0 0 0 0 127 0" result="hardAlpha"/>
<feOffset dy="6.38599"/>
<feGaussianBlur stdDeviation="5.00862"/>
<feColorMatrix type="matrix" values="0 0 0 0 0.662745 0 0 0 0 0.313726 0 0 0 0 0.768627 0 0 0 0.04 0"/>
<feBlend mode="normal" in2="effect1_dropShadow_38_6100" result="effect2_dropShadow_38_6100"/>
<feColorMatrix in="SourceAlpha" type="matrix" values="0 0 0 0 0 0 0 0 0 0 0 0 0 0 0 0 0 0 127 0" result="hardAlpha"/>
<feOffset dy="15.375"/>
<feGaussianBlur stdDeviation="12.0588"/>
<feColorMatrix type="matrix" values="0 0 0 0 0.662745 0 0 0 0 0.313726 0 0 0 0 0.768627 0 0 0 0.0521271 0"/>
<feBlend mode="normal" in2="effect2_dropShadow_38_6100" result="effect3_dropShadow_38_6100"/>
<feColorMatrix in="SourceAlpha" type="matrix" values="0 0 0 0 0 0 0 0 0 0 0 0 0 0 0 0 0 0 127 0" result="hardAlpha"/>
<feOffset dy="51"/>
<feGaussianBlur stdDeviation="40"/>
<feColorMatrix type="matrix" values="0 0 0 0 0.662745 0 0 0 0 0.313726 0 0 0 0 0.768627 0 0 0 0.08 0"/>
<feBlend mode="normal" in2="effect3_dropShadow_38_6100" result="effect4_dropShadow_38_6100"/>
<feBlend mode="normal" in="SourceGraphic" in2="effect4_dropShadow_38_6100" result="shape"/>
</filter>
<linearGradient id="paint0_linear_38_6100" x1="354.5" y1="729" x2="354.5" y2="902" gradientUnits="userSpaceOnUse">
<stop stop-color="#82269E"/>
<stop offset="1" stop-color="#82269E" stop-opacity="0"/>
</linearGradient>
<linearGradient id="paint1_linear_38_6100" x1="459.26" y1="129.045" x2="93.1891" y2="323.893" gradientUnits="userSpaceOnUse">
<stop stop-color="#A950C4"/>
<stop offset="1" stop-color="#82269E"/>
</linearGradient>
<linearGradient id="paint2_linear_38_6100" x1="359.664" y1="268.238" x2="354.187" y2="278.31" gradientUnits="userSpaceOnUse">
<stop stop-color="#A950C4"/>
<stop offset="1" stop-color="#82269E"/>
</linearGradient>
<linearGradient id="paint3_linear_38_6100" x1="361.021" y1="262.641" x2="359.666" y2="268.871" gradientUnits="userSpaceOnUse">
<stop stop-color="#A950C4"/>
<stop offset="1" stop-color="#82269E"/>
</linearGradient>
<linearGradient id="paint4_linear_38_6100" x1="355.08" y1="263.972" x2="353.564" y2="264.091" gradientUnits="userSpaceOnUse">
<stop stop-color="#A950C4"/>
<stop offset="1" stop-color="#82269E"/>
</linearGradient>
<linearGradient id="paint5_linear_38_6100" x1="353.168" y1="257.71" x2="350.243" y2="262.417" gradientUnits="userSpaceOnUse">
<stop stop-color="#A950C4"/>
<stop offset="1" stop-color="#82269E"/>
</linearGradient>
<linearGradient id="paint6_linear_38_6100" x1="360.052" y1="257.71" x2="357.127" y2="262.417" gradientUnits="userSpaceOnUse">
<stop stop-color="#A950C4"/>
<stop offset="1" stop-color="#82269E"/>
</linearGradient>
<linearGradient id="paint7_linear_38_6100" x1="567.56" y1="587.455" x2="548.349" y2="619.664" gradientUnits="userSpaceOnUse">
<stop stop-color="#A950C4"/>
<stop offset="1" stop-color="#82269E"/>
</linearGradient>
<linearGradient id="paint8_linear_38_6100" x1="551.845" y1="140.91" x2="550.32" y2="140.937" gradientUnits="userSpaceOnUse">
<stop stop-color="#A950C4"/>
<stop offset="1" stop-color="#82269E"/>
</linearGradient>
<linearGradient id="paint9_linear_38_6100" x1="563.42" y1="149.67" x2="535.634" y2="177.123" gradientUnits="userSpaceOnUse">
<stop stop-color="#A950C4"/>
<stop offset="1" stop-color="#82269E"/>
</linearGradient>
<linearGradient id="paint10_linear_38_6100" x1="166.56" y1="223.1" x2="126.993" y2="259.586" gradientUnits="userSpaceOnUse">
<stop stop-color="#A950C4"/>
<stop offset="1" stop-color="#82269E"/>
</linearGradient>
<clipPath id="clip0_38_6100">
<rect width="302.888" height="89.6548" fill="white" transform="translate(202 564.896)"/>
</clipPath>
<clipPath id="clip1_38_6100">
<rect width="302.888" height="89.6548" fill="white" transform="translate(202 564.897)"/>
</clipPath>
<clipPath id="clip2_38_6100">
<rect width="302.888" height="89.6548" fill="white" transform="translate(201 564.897)"/>
</clipPath>
</defs>
</svg>
