<svg width="72" height="72" viewBox="0 0 72 72" fill="none" xmlns="http://www.w3.org/2000/svg">
<g clip-path="url(#clip0_30_3106)">
<rect width="72" height="72" rx="17.0769" fill="#FEFBFF"/>
<path d="M32.4671 25.4979C34.9954 28.5333 36.3799 32.3588 36.3799 36.3093C36.3799 40.2597 34.9954 44.0852 32.4671 47.1206" stroke="url(#paint0_linear_30_3106)" stroke-width="3" stroke-linecap="round" stroke-linejoin="round"/>
<path d="M37.9189 20C41.8749 24.488 44.0576 30.2651 44.0576 36.2477C44.0576 42.2304 41.8749 48.0075 37.9189 52.4954" stroke="url(#paint1_linear_30_3106)" stroke-width="3" stroke-linecap="round" stroke-linejoin="round"/>
<path d="M27.0004 30.919C28.1081 32.478 28.7031 34.3431 28.7031 36.2555C28.7031 38.168 28.1081 40.0331 27.0004 41.5921" stroke="url(#paint2_linear_30_3106)" stroke-width="3" stroke-linecap="round" stroke-linejoin="round"/>
</g>
<defs>
<linearGradient id="paint0_linear_30_3106" x1="35.8517" y1="43.7691" x2="30.7986" y2="42.9758" gradientUnits="userSpaceOnUse">
<stop stop-color="#5568DE"/>
<stop offset="1" stop-color="#3B55C0"/>
</linearGradient>
<linearGradient id="paint1_linear_30_3106" x1="43.2289" y1="47.4586" x2="35.3183" y2="46.1622" gradientUnits="userSpaceOnUse">
<stop stop-color="#5568DE"/>
<stop offset="1" stop-color="#3B55C0"/>
</linearGradient>
<linearGradient id="paint2_linear_30_3106" x1="28.4733" y1="39.9378" x2="26.2625" y2="39.6318" gradientUnits="userSpaceOnUse">
<stop stop-color="#5568DE"/>
<stop offset="1" stop-color="#3B55C0"/>
</linearGradient>
<clipPath id="clip0_30_3106">
<rect width="72" height="72" fill="white"/>
</clipPath>
</defs>
</svg>
