<svg width="210" height="34" viewBox="0 0 210 34" fill="none" xmlns="http://www.w3.org/2000/svg">
<path d="M18.6 1H13.8C11.6783 1 9.64344 1.84285 8.14315 3.34315C6.64285 4.84344 5.8 6.87827 5.8 9V13.8H1V20.2H5.8V33H12.2V20.2H17L18.6 13.8H12.2V9C12.2 8.57565 12.3686 8.16869 12.6686 7.86863C12.9687 7.56857 13.3757 7.4 13.8 7.4H18.6V1Z" stroke="#EDEAEF" stroke-width="2" stroke-linecap="round" stroke-linejoin="round"/>
<path d="M82.5821 9.54812C82.4079 8.8523 82.0532 8.21475 81.5538 7.69988C81.0544 7.18502 80.4279 6.81106 79.7377 6.61579C77.2159 6 67.1287 6 67.1287 6C67.1287 6 57.0414 6 54.5196 6.67444C53.8294 6.86971 53.203 7.24366 52.7036 7.75853C52.2041 8.2734 51.8494 8.91094 51.6753 9.60677C51.2137 12.166 50.988 14.7623 51.0008 17.3628C50.9844 19.9829 51.2102 22.5989 51.6753 25.1775C51.8673 25.8517 52.2299 26.465 52.7282 26.9581C53.2265 27.4512 53.8435 27.8075 54.5196 27.9925C57.0414 28.6669 67.1287 28.6669 67.1287 28.6669C67.1287 28.6669 77.2159 28.6669 79.7377 27.9925C80.4279 27.7972 81.0544 27.4233 81.5538 26.9084C82.0532 26.3935 82.4079 25.756 82.5821 25.0602C83.04 22.5202 83.2658 19.9437 83.2565 17.3628C83.273 14.7427 83.0472 12.1267 82.5821 9.54812V9.54812Z" stroke="#EDEAEF" stroke-width="2" stroke-linecap="round" stroke-linejoin="round"/>
<path d="M63.8296 22.1576L72.2601 17.3632L63.8296 12.5688V22.1576Z" stroke="#EDEAEF" stroke-width="2" stroke-linecap="round" stroke-linejoin="round"/>
<path d="M137 4H123C119.134 4 116 7.13401 116 11V25C116 28.866 119.134 32 123 32H137C140.866 32 144 28.866 144 25V11C144 7.13401 140.866 4 137 4Z" stroke="#EDEAEF" stroke-width="2" stroke-linecap="round" stroke-linejoin="round"/>
<path d="M135.6 17.1179C135.773 18.2831 135.574 19.473 135.031 20.5186C134.489 21.5641 133.63 22.4119 132.578 22.9415C131.526 23.471 130.334 23.6554 129.171 23.4682C128.008 23.2811 126.934 22.732 126.101 21.8992C125.268 21.0663 124.719 19.992 124.532 18.829C124.345 17.6661 124.529 16.4738 125.058 15.4217C125.588 14.3695 126.436 13.5112 127.481 12.9687C128.527 12.4262 129.717 12.2272 130.882 12.3999C132.07 12.5762 133.171 13.13 134.02 13.9796C134.87 14.8291 135.424 15.9294 135.6 17.1179Z" stroke="#EDEAEF" stroke-width="2" stroke-linecap="round" stroke-linejoin="round"/>
<path d="M137.7 10.2988H137.715" stroke="#EDEAEF" stroke-width="2" stroke-linecap="round" stroke-linejoin="round"/>
<path d="M209 4.01513C207.564 5.03153 205.973 5.80891 204.29 6.31733C203.387 5.27534 202.186 4.5368 200.851 4.2016C199.515 3.86641 198.109 3.95072 196.823 4.44315C195.537 4.93558 194.433 5.81236 193.659 6.9549C192.886 8.09745 192.482 9.45064 192.5 10.8315V12.3362C189.864 12.4047 187.252 11.8183 184.897 10.629C182.541 9.43972 180.515 7.68457 179 5.51984C179 5.51984 173 19.0622 186.5 25.081C183.411 27.1846 179.731 28.2393 176 28.0905C189.5 35.614 206 28.0905 206 10.7863C205.999 10.3672 205.958 9.94909 205.88 9.53741C207.411 8.02291 208.491 6.11076 209 4.01513V4.01513Z" stroke="#EDEAEF" stroke-width="2" stroke-linecap="round" stroke-linejoin="round"/>
</svg>
