<svg width="72" height="72" viewBox="0 0 72 72" fill="none" xmlns="http://www.w3.org/2000/svg">
<g clip-path="url(#clip0_30_3095)">
<rect width="72" height="72" rx="17.0769" fill="#FEFBFF"/>
<path d="M19.2134 22.9347C20.1286 22.0477 21.2145 21.345 22.4089 20.8666C23.6034 20.3883 24.883 20.1436 26.1747 20.1466C27.4664 20.1496 28.7449 20.4003 29.9371 20.8843C31.1292 21.3682 32.2118 22.076 33.1229 22.9672L35.0137 24.8159L36.9131 22.9761C38.7618 21.1855 41.2659 20.1829 43.8744 20.189C46.483 20.1951 48.9823 21.2094 50.8226 23.0087C52.6629 24.808 53.6935 27.245 53.6875 29.7835C53.6816 32.3219 52.6397 34.754 50.7909 36.5447L48.8915 38.3845L34.9503 51.8879L21.0725 38.3193L19.1817 36.4707C18.2702 35.5799 17.5479 34.5231 17.0562 33.3607C16.5644 32.1982 16.3129 30.9529 16.3158 29.6959C16.3187 28.4389 16.5762 27.1948 17.0733 26.0347C17.5705 24.8746 18.2977 23.8212 19.2134 22.9347Z" stroke="url(#paint0_linear_30_3095)" stroke-width="3" stroke-linecap="round" stroke-linejoin="round"/>
</g>
<defs>
<linearGradient id="paint0_linear_30_3095" x1="22.1208" y1="24.4194" x2="42.0983" y2="51.6829" gradientUnits="userSpaceOnUse">
<stop stop-color="#5568DE"/>
<stop offset="1" stop-color="#3B55C0"/>
</linearGradient>
<clipPath id="clip0_30_3095">
<rect width="72" height="72" fill="white"/>
</clipPath>
</defs>
</svg>
